<svg xmlns="http://www.w3.org/2000/svg" viewBox="0 0 118.2 113.12"><defs><style>.cls-1{fill:#69cdff;}.cls-2{fill:#445ea0;}.cls-3{fill:#2e4c89;}.cls-4{fill:#293d7c;}.cls-5{fill:#1a2b63;}.cls-6{fill:#fff;}.cls-7{fill:#d9eafc;}.cls-8{fill:#c3ddf4;}.cls-9{fill:#aec1ed;}.cls-10{fill:#ffaf10;}.cls-11{fill:#ff9518;}.cls-12{fill:#5dc1d8;}</style></defs><title>Recurso 10</title><g id="Layer_2" data-name="Layer 2"><g id="Capa_1" data-name="Capa 1"><circle class="cls-1" cx="61.64" cy="56.56" r="56.56"/><rect class="cls-2" x="42.87" y="80.23" width="18.17" height="9.52"/><rect class="cls-3" x="42.87" y="80.23" width="4.58" height="9.52"/><path class="cls-4" d="M73.15,89.52H29.45a1.18,1.18,0,0,0-1.18,1.17V96.6a1.18,1.18,0,0,0,1.18,1.17h43.7V89.52Z"/><path class="cls-5" d="M32.85,96.6V90.69A1.18,1.18,0,0,1,34,89.52H29.45a1.18,1.18,0,0,0-1.18,1.17V96.6a1.18,1.18,0,0,0,1.18,1.17H34A1.18,1.18,0,0,1,32.85,96.6Z"/><path class="cls-4" d="M102.74,11.07H1.18A1.18,1.18,0,0,0,0,12.25v67a1.18,1.18,0,0,0,1.18,1.18h72V45.19a1.61,1.61,0,0,1,1.61-1.61h29.16V12.25A1.18,1.18,0,0,0,102.74,11.07Z"/><path class="cls-6" d="M5.17,68.68a.71.71,0,0,0,.71.71H73.15V45.19a1.61,1.61,0,0,1,1.61-1.61h24v-21H5.17Z"/><path class="cls-7" d="M9.75,68.68V22.62H5.17V68.68a.71.71,0,0,0,.71.71h4.58A.71.71,0,0,1,9.75,68.68Z"/><circle class="cls-2" cx="51.96" cy="74.9" r="3.18"/><path class="cls-8" d="M73.15,49H60.81a.7.7,0,0,0-.69.7V63.43a.69.69,0,0,0,.69.7H73.15Z"/><path class="cls-9" d="M64.7,63.43V49.67a.7.7,0,0,1,.69-.7H60.81a.7.7,0,0,0-.69.7V63.43a.69.69,0,0,0,.69.7h4.58A.69.69,0,0,1,64.7,63.43Z"/><path class="cls-8" d="M74.76,43.58H85.52V28.48a1.15,1.15,0,0,0-1.15-1.15H19.55a1.16,1.16,0,0,0-1.16,1.15V43.84A1.16,1.16,0,0,0,19.55,45H73.16A1.62,1.62,0,0,1,74.76,43.58Z"/><path class="cls-9" d="M23,43.84V28.48a1.15,1.15,0,0,1,1.15-1.15H19.55a1.16,1.16,0,0,0-1.16,1.15V43.84A1.16,1.16,0,0,0,19.55,45h4.58A1.15,1.15,0,0,1,23,43.84Z"/><path class="cls-10" d="M98,17.08H5.88a.71.71,0,0,0-.71.71v5.06H98.75V17.79A.71.71,0,0,0,98,17.08Z"/><path class="cls-11" d="M10.46,17.08H5.88a.71.71,0,0,0-.71.71v5.06H9.75V17.79A.71.71,0,0,1,10.46,17.08Z"/><path class="cls-12" d="M39.59,52.63H20.16a1.73,1.73,0,1,1,0-3.46H39.59a1.73,1.73,0,0,1,0,3.46Z"/><path class="cls-12" d="M39.59,58.28H20.16a1.73,1.73,0,0,1,0-3.46H39.59a1.73,1.73,0,0,1,0,3.46Z"/><path class="cls-12" d="M39.59,63.93H20.16a1.73,1.73,0,0,1,0-3.46H39.59a1.73,1.73,0,0,1,0,3.46Z"/><path class="cls-12" d="M54.84,52.63h-10a1.73,1.73,0,0,1,0-3.46h10a1.73,1.73,0,0,1,0,3.46Z"/><path class="cls-12" d="M54.84,58.28h-10a1.73,1.73,0,0,1,0-3.46h10a1.73,1.73,0,0,1,0,3.46Z"/><path class="cls-12" d="M54.84,63.93h-10a1.73,1.73,0,0,1,0-3.46h10a1.73,1.73,0,0,1,0,3.46Z"/><path class="cls-2" d="M116.35,43.35a1.86,1.86,0,0,1,1.85,1.84V101a1.86,1.86,0,0,1-1.85,1.84H74.76A1.85,1.85,0,0,1,72.92,101V45.19a1.85,1.85,0,0,1,1.84-1.84Z"/><path class="cls-6" d="M77.93,95.6a1.16,1.16,0,0,1-1.16-1.15V48.06a1.16,1.16,0,0,1,1.16-1.16h35.25a1.16,1.16,0,0,1,1.16,1.16V94.45a1.16,1.16,0,0,1-1.16,1.15Z"/><path class="cls-7" d="M81.35,94.45V48.06a1.16,1.16,0,0,1,1.16-1.16H77.93a1.16,1.16,0,0,0-1.16,1.16V94.45a1.16,1.16,0,0,0,1.16,1.15h4.58A1.16,1.16,0,0,1,81.35,94.45Z"/><path class="cls-2" d="M93.39,100.22a1.16,1.16,0,0,1-1.15-1.16v-.44a1.16,1.16,0,0,1,1.15-1.16h4.33a1.16,1.16,0,0,1,1.15,1.16v.44a1.16,1.16,0,0,1-1.15,1.16Z"/><path class="cls-10" d="M114.34,51.36v-3.3a1.16,1.16,0,0,0-1.16-1.16H77.93a1.16,1.16,0,0,0-1.16,1.16v3.3Z"/><path class="cls-11" d="M82.51,46.9H77.93a1.16,1.16,0,0,0-1.16,1.16v3.3h4.58v-3.3A1.16,1.16,0,0,1,82.51,46.9Z"/><path class="cls-12" d="M103.42,72.47H87.69a1.73,1.73,0,1,1,0-3.46h15.73a1.73,1.73,0,1,1,0,3.46Z"/><path class="cls-12" d="M103.42,77.81H87.69a1.73,1.73,0,1,1,0-3.46h15.73a1.73,1.73,0,1,1,0,3.46Z"/><path class="cls-12" d="M103.42,83.15H87.69a1.73,1.73,0,1,1,0-3.46h15.73a1.73,1.73,0,1,1,0,3.46Z"/><path class="cls-8" d="M110.75,64.93a1.16,1.16,0,0,1-1.15,1.15H81.51a1.16,1.16,0,0,1-1.15-1.15V55.41a1.16,1.16,0,0,1,1.15-1.16H109.6a1.16,1.16,0,0,1,1.15,1.16Z"/><path class="cls-9" d="M84.94,64.93V55.41a1.16,1.16,0,0,1,1.15-1.16H81.51a1.16,1.16,0,0,0-1.15,1.16v9.52a1.16,1.16,0,0,0,1.15,1.15h4.58A1.16,1.16,0,0,1,84.94,64.93Z"/><path class="cls-8" d="M106.6,92a1.16,1.16,0,0,1-1.16,1.16H85.67A1.16,1.16,0,0,1,84.51,92v-3.9a1.16,1.16,0,0,1,1.16-1.15h19.77a1.16,1.16,0,0,1,1.16,1.15V92Z"/><path class="cls-9" d="M89.1,92v-3.9a1.15,1.15,0,0,1,1.15-1.15H85.67a1.16,1.16,0,0,0-1.16,1.15V92a1.16,1.16,0,0,0,1.16,1.16h4.58A1.15,1.15,0,0,1,89.1,92Z"/></g></g></svg>