<svg xmlns="http://www.w3.org/2000/svg" viewBox="0 0 57.52 57.52"><defs><style>.cls-1{fill:#fff;}</style></defs><title>Recurso 3</title><g id="Layer_2" data-name="Layer 2"><g id="Capa_1" data-name="Capa 1"><path class="cls-1" d="M28.77,0A28.76,28.76,0,1,0,57.52,28.78,28.84,28.84,0,0,0,28.77,0ZM24.5,4.66a14.43,14.43,0,0,1,3.41-.3c1.3,0,2.59.06,3.88.21A24.15,24.15,0,0,1,39.8,7a23.66,23.66,0,0,1,5,3.3c.38.32.38.22.06.61A23.53,23.53,0,0,1,40.34,15a34.75,34.75,0,0,1-7.82,4.22c-.3.12-.3.12-.46-.17A151.38,151.38,0,0,0,23.25,5.33a.66.66,0,0,1-.17-.3A8,8,0,0,1,24.5,4.66ZM4.8,23.41A23.64,23.64,0,0,1,18,6.94c.46-.22.35-.24.64.17a149.1,149.1,0,0,1,8.6,13.47.55.55,0,0,1,.13.33c-.45.12-.91.24-1.37.34q-3.93.93-7.92,1.51-3.06.45-6.15.71c-2.27.19-4.54.33-6.83.33C4.72,23.8,4.69,23.86,4.8,23.41Zm5.74,21.81a.78.78,0,0,1-.28-.26,24.21,24.21,0,0,1-5.57-11.2,26,26,0,0,1-.53-5.28,1.76,1.76,0,0,0,0-.23c0-.14.06-.19.19-.18h.2c2,0,4,0,6.06-.17,1.79-.12,3.57-.29,5.35-.51a83.49,83.49,0,0,0,13.11-2.67l.17,0c.16-.08.25,0,.34.13.69,1.27,1.28,2.58,1.87,3.9a.25.25,0,0,1,0,.08,32.36,32.36,0,0,0-8.54,3.89A40.74,40.74,0,0,0,11.24,44.13C11,44.49,10.77,44.86,10.54,45.22Zm27.53,6.29a21.57,21.57,0,0,1-3.33,1.08,26.24,26.24,0,0,1-6.21.69,24,24,0,0,1-12-3.39,28.17,28.17,0,0,1-2.59-1.7c-.23-.18-.23-.18-.08-.43a26.92,26.92,0,0,1,3.51-4.84,36.47,36.47,0,0,1,12.14-8.83q1.55-.71,3.15-1.29l.16,0c.27-.09.3-.08.4.19.38,1,.77,2.08,1.14,3.13a105.36,105.36,0,0,1,3.73,13.75c.09.42.15.85.24,1.27S38.35,51.39,38.07,51.51ZM53,33.06a24.69,24.69,0,0,1-2.14,6.43A25.24,25.24,0,0,1,42.78,49a.75.75,0,0,1-.34.19l-.24-1.31c-.72-3.66-1.65-7.27-2.73-10.84q-.77-2.49-1.62-5a2,2,0,0,0-.08-.22.11.11,0,0,1,.1-.17l.54-.09a33.75,33.75,0,0,1,5.12-.29A37.9,37.9,0,0,1,52.7,32.6C53.06,32.69,53.06,32.6,53,33.06Zm.17-4.51c-1-.2-2-.36-3.06-.49-1.25-.17-2.5-.31-3.76-.4-1.67-.12-3.35-.2-5-.17a43.82,43.82,0,0,0-4.72.3c-.27,0-.27,0-.38-.22-.61-1.44-1.24-2.87-2-4.26-.17-.33-.12-.29.16-.41A39.63,39.63,0,0,0,41,19.37a30.49,30.49,0,0,0,6.6-5.86l.14-.15.06,0a.63.63,0,0,1,.21.22,24.86,24.86,0,0,1,5.08,11.37,24,24,0,0,1,.35,3.39C53.43,28.58,53.42,28.6,53.15,28.55Z"/></g></g></svg>