<svg xmlns="http://www.w3.org/2000/svg" viewBox="0 0 129.34 114.96"><defs><style>.cls-1{fill:#b3b3b3;}.cls-2{fill:#293b44;}.cls-3{fill:#344d5b;}.cls-4{fill:#467082;}.cls-5{fill:#cd5248;}</style></defs><title>Recurso 13</title><g id="Layer_2" data-name="Layer 2"><g id="Capa_1" data-name="Capa 1"><circle class="cls-1" cx="69.78" cy="58.46" r="56.5"/><path class="cls-2" d="M98.48,60.57H112.2V80H98.48Z"/><path class="cls-3" d="M95.1,41H26.49a8.27,8.27,0,0,0-8.27,8.28v42a8.28,8.28,0,0,0,8.27,8.28H95.1a8.28,8.28,0,0,0,8.27-8.28v-42A8.27,8.27,0,0,0,95.1,41Z"/><path class="cls-4" d="M129.34,88.41,109.89,80V60.57l19.45-8.39Z"/><path class="cls-4" d="M72.22,0A26.26,26.26,0,1,0,98.48,26.25,26.25,26.25,0,0,0,72.22,0ZM57.54,31.89a5.63,5.63,0,1,1,5.63-5.64A5.63,5.63,0,0,1,57.54,31.89ZM72.22,46.57a5.63,5.63,0,1,1,5.63-5.64A5.63,5.63,0,0,1,72.22,46.57Zm0-29.38a5.62,5.62,0,1,1,5.63-5.62A5.62,5.62,0,0,1,72.22,17.19Zm14.7,14.7a5.63,5.63,0,1,1,5.62-5.64A5.63,5.63,0,0,1,86.92,31.89Z"/><path class="cls-5" d="M72.23,22.49A3.77,3.77,0,1,0,76,26.26,3.77,3.77,0,0,0,72.23,22.49Z"/><path class="cls-4" d="M21.26,11.57A21.27,21.27,0,1,0,42.54,32.83,21.26,21.26,0,0,0,21.26,11.57ZM9.37,37.4a4.56,4.56,0,1,1,4.56-4.57A4.56,4.56,0,0,1,9.37,37.4ZM21.26,49.29a4.56,4.56,0,1,1,4.57-4.57A4.56,4.56,0,0,1,21.26,49.29Zm0-23.8a4.56,4.56,0,1,1,4.57-4.55A4.55,4.55,0,0,1,21.26,25.49ZM33.17,37.4a4.56,4.56,0,1,1,4.55-4.57A4.57,4.57,0,0,1,33.17,37.4Z"/><path class="cls-5" d="M21.27,29.78a3.06,3.06,0,1,0,3.05,3.06A3.05,3.05,0,0,0,21.27,29.78Z"/></g></g></svg>