<svg xmlns="http://www.w3.org/2000/svg" viewBox="0 0 113 113"><defs><style>.cls-1{fill:#fbb03b;}.cls-2{fill:#ead194;}.cls-3{fill:#f5f1d8;}.cls-4,.cls-5{fill:red;}.cls-4{stroke:#000;stroke-miterlimit:10;stroke-width:0.71px;}.cls-6{fill:#80c5e4;}.cls-7{fill:#f9a287;}</style></defs><title>Asset 25</title><g id="Layer_2" data-name="Layer 2"><g id="Capa_1" data-name="Capa 1"><circle class="cls-1" cx="56.5" cy="56.5" r="56.5"/><rect class="cls-2" x="14.83" y="3.46" width="71.71" height="104.94"/><rect class="cls-3" x="6.08" y="3.46" width="71.71" height="104.94"/><line class="cls-4" x1="27.07" y1="75.17" x2="39.31" y2="75.17"/><line class="cls-4" x1="39.31" y1="73.42" x2="39.31" y2="76.92"/><line class="cls-4" x1="27.07" y1="73.42" x2="27.07" y2="76.92"/><line class="cls-4" x1="48.06" y1="75.17" x2="60.3" y2="75.17"/><line class="cls-4" x1="60.3" y1="73.42" x2="60.3" y2="76.92"/><line class="cls-4" x1="48.06" y1="73.42" x2="48.06" y2="76.92"/><line class="cls-4" x1="38.44" y1="31.44" x2="48.93" y2="31.44"/><line class="cls-4" x1="48.93" y1="29.69" x2="48.93" y2="33.19"/><line class="cls-4" x1="38.44" y1="29.69" x2="38.44" y2="33.19"/><path class="cls-5" d="M26.81,70.11V65.32h3.4L40.42,36.59h6.81L57.45,65.32h3.4v4.79H47.23V65.32h3.41l-1.7-4.79H38.72L37,65.32h3.4v4.79Zm17-24-3.41,9.58h6.81Z"/><rect class="cls-6" x="91.3" y="52.52" width="11.28" height="45.11" transform="translate(1.61 -2.04) rotate(1.21)"/><rect class="cls-7" x="90.71" y="97.62" width="11.28" height="10.68" transform="translate(2.2 -2.02) rotate(1.21)"/><polygon class="cls-3" points="97.37 44.42 99.62 48.52 101.87 52.62 97.19 52.52 92.52 52.42 94.94 48.42 97.37 44.42"/></g></g></svg>