<svg xmlns="http://www.w3.org/2000/svg" viewBox="0 0 60 60"><defs><style>.cls-1{fill:#fff;}</style></defs><title>Recurso 4</title><g id="Layer_2" data-name="Layer 2"><g id="Capa_1" data-name="Capa 1"><path class="cls-1" d="M41.25,0H18.75A18.76,18.76,0,0,0,0,18.75v22.5A18.76,18.76,0,0,0,18.75,60h22.5A18.76,18.76,0,0,0,60,41.25V18.75A18.76,18.76,0,0,0,41.25,0ZM54.38,41.25A13.14,13.14,0,0,1,41.25,54.38H18.75A13.14,13.14,0,0,1,5.63,41.25V18.75A13.13,13.13,0,0,1,18.75,5.63h22.5A13.14,13.14,0,0,1,54.38,18.75Z"/><path class="cls-1" d="M30,15A15,15,0,1,0,45,30,15,15,0,0,0,30,15Zm0,24.38A9.38,9.38,0,1,1,39.38,30,9.38,9.38,0,0,1,30,39.38Z"/><circle class="cls-1" cx="46.13" cy="13.88" r="2"/></g></g></svg>