<svg xmlns="http://www.w3.org/2000/svg" viewBox="0 0 113 117.8"><defs><style>.cls-1{fill:#fcee21;}.cls-2{fill:#e0e0e0;}.cls-3{fill:#dce775;}.cls-4{fill:#ff8a65;}.cls-5{fill:#ffd54f;}.cls-6{fill:#ffe082;}.cls-7{fill:#757575;}.cls-8{fill:#eee;}.cls-9{fill:#fff;}</style></defs><title>Recurso 14</title><g id="Layer_2" data-name="Layer 2"><g id="Capa_1" data-name="Capa 1"><circle class="cls-1" cx="56.5" cy="61.3" r="56.5"/><path class="cls-2" d="M102.4,105.07V46.22a3.46,3.46,0,0,0-3.46-3.46H12.4a3.46,3.46,0,0,0-3.46,3.46v58.85Z"/><path class="cls-3" d="M15.87,49.69H95.48v55.38H15.87Z"/><path class="cls-4" d="M60.87,18.53a5.2,5.2,0,1,1-5.2-5.19A5.19,5.19,0,0,1,60.87,18.53Z"/><path class="cls-4" d="M74.71,105.07V90.47a3.46,3.46,0,0,0-2.62-3.36L60.87,84.3H50.48L39.26,87.11a3.47,3.47,0,0,0-2.63,3.36v14.6Z"/><path class="cls-5" d="M60.87,84.3s0,3.46-5.2,3.46-5.19-3.46-5.19-3.46V75.65H60.87Z"/><path class="cls-6" d="M62.6,65.26V75.59L58,79.11H53.37l-4.62-3.52V65.26Z"/><path class="cls-7" d="M45.29,65.26a9.14,9.14,0,0,1,8.87-6.92h5A3.46,3.46,0,0,1,62.6,61.8v3.46Z"/><path class="cls-8" d="M64.33,98.15a3.46,3.46,0,0,1-3.46,3.46H50.48A3.46,3.46,0,0,1,47,98.15H2v3.46a6.92,6.92,0,0,0,6.92,6.92H102.4a6.92,6.92,0,0,0,6.93-6.92V98.15Z"/><path class="cls-9" d="M71.25,61.8h19v3.46h-19Z"/><path class="cls-9" d="M78.17,68.72H90.29v3.47H78.17Z"/><path class="cls-9" d="M83.37,75.65h6.92v3.46H83.37Z"/><path class="cls-9" d="M21.06,61.8h19v3.46h-19Z"/><path class="cls-9" d="M21.06,68.72H33.17v3.47H21.06Z"/><path class="cls-9" d="M21.06,75.65H28v3.46H21.06Z"/><path d="M53.94,48H57.4v3.46H53.94Z"/><path d="M104.14,96.42V46.22A5.2,5.2,0,0,0,98.94,41H57.4V28.92H53.94V41H12.4a5.2,5.2,0,0,0-5.19,5.19v50.2H.29v5.19a8.65,8.65,0,0,0,8.65,8.65H102.4a8.66,8.66,0,0,0,8.66-8.65V96.42ZM10.67,46.22a1.74,1.74,0,0,1,1.73-1.73H98.94a1.73,1.73,0,0,1,1.73,1.73v50.2H97.21V48H60.87v3.46H93.75v45H76.44V91.89A5.2,5.2,0,0,0,73.07,87L62.6,83.1V77.77l1.73-1.32V61.8a5.19,5.19,0,0,0-5.2-5.19h-5a10.85,10.85,0,0,0-10.55,8.23L43.07,67h4v9.46l1.73,1.32V83.1L38.28,87a5.22,5.22,0,0,0-3.38,4.86v4.53H17.6v-45H50.48V48H14.13V96.42H10.67Zm27.7,50.2V91.89a1.73,1.73,0,0,1,1.12-1.62l9.9-3.72a6,6,0,0,0,4.55,2.8v5.34H57.4V89.35A6,6,0,0,0,62,86.55l9.91,3.72A1.72,1.72,0,0,1,73,91.89v4.53H62.6v1.73a1.74,1.74,0,0,1-1.73,1.73H50.48a1.74,1.74,0,0,1-1.73-1.73V96.42Zm19-19H53.94l-3.46-2.64V67H57.4V63.53H47.88a7.43,7.43,0,0,1,6.28-3.46h5a1.74,1.74,0,0,1,1.74,1.73V74.74Zm1.73,3v3.85c0,.3-.29,1.77-3.46,1.77s-3.44-1.48-3.46-1.73V80.41l.57.43h5.79Zm48.47,21.2a5.19,5.19,0,0,1-5.2,5.19H8.94a5.19,5.19,0,0,1-5.19-5.19V99.88H45.58a5.21,5.21,0,0,0,4.9,3.46H60.87a5.19,5.19,0,0,0,4.89-3.46H107.6Z"/><path d="M29.44,34.62a22.77,22.77,0,0,1,0-32.17L27,0a26.23,26.23,0,0,0,0,37.06Z"/><path d="M33.74,32.45,36.19,30a16.23,16.23,0,0,1,0-22.94L33.74,4.62A19.69,19.69,0,0,0,33.74,32.45Z"/><path d="M42.93,25.39a9.71,9.71,0,0,1,0-13.71L40.48,9.23a13.16,13.16,0,0,0,0,18.6Z"/><path d="M81.91,34.62l2.44,2.44A26.21,26.21,0,0,0,84.35,0L81.91,2.45A22.77,22.77,0,0,1,81.91,34.62Z"/><path d="M77.61,32.45a19.71,19.71,0,0,0,0-27.83L75.16,7.06a16.25,16.25,0,0,1,0,22.94Z"/><path d="M70.86,27.83a13.16,13.16,0,0,0,0-18.6l-2.44,2.45a9.71,9.71,0,0,1,0,13.71Z"/><path d="M55.67,25.45a6.92,6.92,0,1,0-6.92-6.92A6.92,6.92,0,0,0,55.67,25.45Zm0-10.38a3.46,3.46,0,1,1-3.46,3.46A3.46,3.46,0,0,1,55.67,15.07Z"/></g></g></svg>