<svg xmlns="http://www.w3.org/2000/svg" viewBox="0 0 60.19 60.19"><defs><style>.cls-1{fill:#fff;}</style></defs><title>Recurso 2</title><g id="Layer_2" data-name="Layer 2"><g id="Capa_1" data-name="Capa 1"><path class="cls-1" d="M60.17,29q0-1.2-.09-2.4a27.05,27.05,0,0,0-1.16-5.47,30.46,30.46,0,0,0-3.12-6.85,29.87,29.87,0,0,0-3.74-4.87A27,27,0,0,0,49.6,7.06a29.67,29.67,0,0,0-5.55-3.74,31.21,31.21,0,0,0-5.48-2.2A25.4,25.4,0,0,0,31.22,0V0H29V0c-.34,0-.68,0-1,0a16,16,0,0,0-1.69.09c-1,.13-2,.31-2.93.53A28.94,28.94,0,0,0,17.3,2.77a30.35,30.35,0,0,0-4.46,2.57A31,31,0,0,0,8.72,8.79q-.95.95-1.8,2a29.32,29.32,0,0,0-3.41,5.06,29.81,29.81,0,0,0-2.9,7.82,21.8,21.8,0,0,0-.56,4.56v.14a.54.54,0,0,1,0,.22v3.05a.54.54,0,0,1,.05.21V32c0,.52,0,1,.07,1.56A27.19,27.19,0,0,0,1,37.94a29.5,29.5,0,0,0,4.3,9.3,28.81,28.81,0,0,0,2.91,3.6,30.34,30.34,0,0,0,14,8.41,24.1,24.1,0,0,0,6.37.92v0h3.1v0c.67,0,1.35,0,2-.09a28.13,28.13,0,0,0,5.74-1.25,30.73,30.73,0,0,0,5-2.13,31.69,31.69,0,0,0,3.45-2.17,29.82,29.82,0,0,0,4-3.47A30.89,30.89,0,0,0,54,48.53a29.73,29.73,0,0,0,3.5-5.8,31.18,31.18,0,0,0,1.9-5.4,24,24,0,0,0,.74-6.2h0V29ZM36.73,17.86h10.6c.24,0,.24,0,.24.24v2.56c0,.27,0,.25-.26.25H36.84c-.29,0-.28,0-.28-.27V18.14a.33.33,0,0,0,0-.1C36.55,17.92,36.59,17.85,36.73,17.86ZM24.25,43.5a15.91,15.91,0,0,1-2.92.24H8.8c-.38,0-.34,0-.34-.33V16.8c0-.36,0-.31.32-.31H21.63a14,14,0,0,1,4,.55,6.88,6.88,0,0,1,1.62.71,5.19,5.19,0,0,1,2.4,3.07,8.17,8.17,0,0,1,.17,4,5.26,5.26,0,0,1-1.81,3,8.13,8.13,0,0,1-1.43,1,.59.59,0,0,0-.25.16l.39.13a6.8,6.8,0,0,1,2.42,1.38,6,6,0,0,1,1.74,2.76A8.49,8.49,0,0,1,31,38.1a6.79,6.79,0,0,1-3.34,4.2A10.62,10.62,0,0,1,24.25,43.5Zm27.49-9.06c0,.25,0,.25-.27.25H37.86c-.39,0-.38,0-.34.4A7.51,7.51,0,0,0,37.9,37a3.74,3.74,0,0,0,2.87,2.5A6,6,0,0,0,44,39.44a4.76,4.76,0,0,0,2-1.31,2.68,2.68,0,0,0,.54-.84.18.18,0,0,1,.21-.16h4.48l.1,0a1.07,1.07,0,0,1-.08.32,10.69,10.69,0,0,1-1.79,3.3,7.83,7.83,0,0,1-3.7,2.42,11.68,11.68,0,0,1-4,.54,11.22,11.22,0,0,1-3.49-.6,8.91,8.91,0,0,1-5.53-5.53,11.76,11.76,0,0,1-.7-3.67,11.18,11.18,0,0,1,.59-4.29A9.43,9.43,0,0,1,40,23.18a10,10,0,0,1,5.67.4,8.64,8.64,0,0,1,4.53,3.91,11.44,11.44,0,0,1,1.36,3.88A13.17,13.17,0,0,1,51.74,34.44Z"/><path class="cls-1" d="M23.55,32.15a3.16,3.16,0,0,0-.5-.22,6.44,6.44,0,0,0-2.22-.34H14.57a.11.11,0,0,0-.12.12v7.14c0,.22,0,.22.22.22H19.9A14,14,0,0,0,22.05,39a4.88,4.88,0,0,0,1.58-.47,2.89,2.89,0,0,0,1.55-2,5.08,5.08,0,0,0,0-2.16A2.88,2.88,0,0,0,23.55,32.15Z"/><path class="cls-1" d="M14.59,27.52h6.08A4.31,4.31,0,0,0,23,26.87a2.38,2.38,0,0,0,1-1.34,4.19,4.19,0,0,0,.11-2,2.51,2.51,0,0,0-1.57-2,3.48,3.48,0,0,0-.62-.21A8,8,0,0,0,20,21.14H14.58c-.09,0-.14,0-.13.14v6.11C14.44,27.48,14.49,27.52,14.59,27.52Z"/><path class="cls-1" d="M46.21,30.77a6.52,6.52,0,0,0-.92-2.21,3.13,3.13,0,0,0-1.94-1.35,6.15,6.15,0,0,0-2.22-.1,4,4,0,0,0-2.72,1.54,4.79,4.79,0,0,0-.91,2.45c0,.11,0,.16.13.15h8.45c.22,0,.22,0,.18-.21A2.56,2.56,0,0,0,46.21,30.77Z"/></g></g></svg>