<svg xmlns="http://www.w3.org/2000/svg" viewBox="0 0 702.47 702.41"><title>Asset 1</title><g id="Layer_2" data-name="Layer 2"><g id="Layer_1-2" data-name="Layer 1"><path d="M342.17,0h18a37.25,37.25,0,0,0,4.16.81c10,.84,20,1.33,29.92,2.45A327.63,327.63,0,0,1,497.76,32.42C582.25,72.24,642.6,135.4,677.64,222c23.91,59.08,30.07,120.5,20.55,183.48a342.74,342.74,0,0,1-50.42,134.11,348.21,348.21,0,0,1-99.72,102.57c-54.23,36.67-114.12,56.43-179.41,59.8a348,348,0,0,1-75.43-4.44A342,342,0,0,1,159.08,645Q62.3,580.83,21.75,471.79a334.1,334.1,0,0,1-20-93.08c-.43-6.2-1.12-12.38-1.7-18.57v-18c.3-1.65.69-3.28.87-4.94,1.85-16.39,2.75-32.94,5.64-49.14,12.07-67.49,42-126.21,88.7-176.32A345.57,345.57,0,0,1,217.12,27.2,341.42,341.42,0,0,1,324.39,1.69C330.33,1.27,336.24.57,342.17,0ZM162.36,252.47c.88,7.09,1.41,14.23,2.72,21.24,4.73,25.45,14.38,49.09,27,71.57,19.39,34.53,44,65,72.13,92.77,22,21.73,44.81,42.39,71,59,34,21.57,69.4,39.45,110.55,42.7,14.25,1.13,26.7-1.59,37.1-12.16,16.52-16.79,33.4-33.22,50.08-49.86,10.85-10.82,9.43-23.65-3.71-31.51q-36.84-22.05-73.92-43.71c-11.71-6.85-23.55-5.08-33.07,4.51q-9.76,9.84-19.42,19.79a8.58,8.58,0,0,1-8.43,2.71c-9-1.75-16.92-5.94-24.5-10.76-30.61-19.43-55.69-44.77-77.45-73.5-8-10.61-14.66-22.11-18.71-34.94-1.38-4.36-.48-7.74,2.83-10.89,6-5.75,11.87-11.69,17.71-17.64,7.11-7.25,9.47-18.15,5.28-26.19-14.18-27.23-28.38-54.46-42.9-81.5-7.11-13.23-20.52-14.84-31.06-4.31-16,16-31.79,32.29-48.15,47.95C167.42,227.38,162,238.42,162.36,252.47Z"/></g></g></svg>