<svg id="Layer_1" data-name="Layer 1" xmlns="http://www.w3.org/2000/svg" viewBox="0 0 120 120"><defs><style>.cls-1{fill:#58595b;}</style></defs><path class="cls-1" d="M72.81,96.44v-36a.48.48,0,0,0,0-.54,53,53,0,0,0-16,0,.48.48,0,0,0,0,.54v36a1.06,1.06,0,0,0-.07.58c-5.18.51-10.38,0-15.55.24-2,.07-1.79-1.24-1.79-2.47V65.06c0-1.54-.07-3.08-.12-4.61V59.9c-2.29-1-4.69-.38-7-.43-1.78,0-2.64-.35-2.54-2.39.17-3.28.08-6.57,0-9.85,0-1.36.4-1.89,1.83-1.85,2.4.07,4.82,0,7.23,0,.41,0,.62-.1.57-.53q0-3.16.41-6.32A18,18,0,0,1,56.81,22.89c4.79-.32,9.63-.1,14.45-.21,1.41,0,1.79.51,1.77,1.86C73,28,72.94,31.47,73,34.93c0,1.42-.46,1.81-1.82,1.79-2.89,0-5.78,0-8.63.09a.59.59,0,0,0-.55,0c-2.8.3-4.69,1.62-5.14,4.56a.61.61,0,0,0,0,.56v2.92c-.06.39.1.58.51.52,10,0,20.06.14,30.09,0,2.39,0,2.83.75,2.82,2.93q-.12,23,0,46c0,2.47-.78,3.13-3.12,3-4.7-.28-9.43.23-14.15-.26Z"/></svg>