<svg id="Layer_1" data-name="Layer 1" xmlns="http://www.w3.org/2000/svg" viewBox="0 0 120 120"><defs><style>.cls-1{fill:#58595b;}</style></defs><path class="cls-1" d="M50.82,57.1l1.23.42a15.31,15.31,0,0,1,7.71,5.64,16.37,16.37,0,0,1,2.71,6.7,21.18,21.18,0,0,1-.35,9.27,16.45,16.45,0,0,1-7.43,9.79,25.07,25.07,0,0,1-8.59,3.23,34.77,34.77,0,0,1-6.83.6H8.52c-.71,0-.65,0-.65-.65V28c0-.91-.1-.8.81-.8H38.4a41.83,41.83,0,0,1,9.34.94,18.71,18.71,0,0,1,5,1.93,12.71,12.71,0,0,1,6.22,8A19.87,19.87,0,0,1,59.36,47a12.85,12.85,0,0,1-5.17,8.13,19.44,19.44,0,0,1-2.7,1.7ZM22.27,72.52V81.2c0,.23.09.32.32.32H37.3a21.18,21.18,0,0,0,2.76-.15,12.14,12.14,0,0,0,4.34-1.18,7,7,0,0,0,3.81-5,13.08,13.08,0,0,0,0-5.14,7.24,7.24,0,0,0-4.54-5.52l-.73-.29a15.49,15.49,0,0,0-5.1-.74H23.07a2.16,2.16,0,0,1-.36,0c-.23,0-.35.09-.33.32v8.68Zm8.19-18.8h7.23a9.55,9.55,0,0,0,5-1.45A5.75,5.75,0,0,0,45.23,49a10,10,0,0,0,.11-5.41,5.76,5.76,0,0,0-2.72-3.73,8.2,8.2,0,0,0-2.51-1,21.2,21.2,0,0,0-4.49-.47H22.94c-.67,0-.67,0-.67.71V53.44c0,.21.09.31.29.31h7.9Z"/><path class="cls-1" d="M111.14,76.93c-.17.58-.36,1.15-.58,1.71a29.09,29.09,0,0,1-1.74,3.76,18.77,18.77,0,0,1-11,9.07,29.38,29.38,0,0,1-11.18,1.24,25.56,25.56,0,0,1-7.23-1.53A21.35,21.35,0,0,1,66.57,78.36a30,30,0,0,1-.47-19.22A22.69,22.69,0,0,1,83.45,43.42,24.55,24.55,0,0,1,96,43.77a20.77,20.77,0,0,1,12.32,9.75,27.28,27.28,0,0,1,3.37,9.54,32.09,32.09,0,0,1,.32,7.39c0,.6,0,.6-.67.6H78.68c-1,0-1,0-.88,1a19.48,19.48,0,0,0,.76,4.14,9,9,0,0,0,6.76,6.39,14.79,14.79,0,0,0,7.81,0,11.24,11.24,0,0,0,5.22-3.33,5.78,5.78,0,0,0,1.23-2,.41.41,0,0,1,.46-.34H111ZM98.94,62.69c-.08-.38-.14-.74-.23-1.09a15.75,15.75,0,0,0-2.25-5.42,7.58,7.58,0,0,0-4.34-3.1,14.51,14.51,0,0,0-5.37-.32,9.72,9.72,0,0,0-7.1,4.17,11.16,11.16,0,0,0-1.82,5c-.15.89-.12.78.66.78H98.22A1.94,1.94,0,0,0,98.94,62.69Z"/><path class="cls-1" d="M88.78,30.53h12.65c.57,0,.58,0,.58.55v6.45c0,.38-.09.38-.36.37H76.27c-.79,0-.77.11-.77-.74V30.82a.28.28,0,0,1,.29-.29h13Z"/></svg>