<svg xmlns="http://www.w3.org/2000/svg" viewBox="0 0 113 117"><defs><style>.cls-1{fill:#39b54a;}.cls-2{fill:#38454f;}.cls-3{fill:#50508a;stroke:#283238;stroke-width:4px;}.cls-3,.cls-5{stroke-linecap:round;stroke-miterlimit:10;}.cls-4{fill:#546a79;}.cls-5{fill:#434c6d;stroke:#7383bf;stroke-width:2px;}.cls-6{fill:#283238;}.cls-7{fill:#afb6bb;}.cls-8{fill:#71c3a9;}.cls-9{fill:#d75e72;}</style></defs><title>Recurso 12</title><g id="Layer_2" data-name="Layer 2"><g id="Capa_1" data-name="Capa 1"><circle class="cls-1" cx="56.5" cy="60.5" r="56.5"/><polyline class="cls-2" points="74.86 99.62 99.3 99.62 99.3 39.47 74.86 39.47 74.86 33.83 29.75 33.83 29.75 39.47 5.32 39.47 5.32 99.62 29.75 99.62"/><circle class="cls-3" cx="52.31" cy="71.43" r="30.07"/><path class="cls-4" d="M14.72,71.43A37.43,37.43,0,0,1,27,43.71a2.44,2.44,0,0,0-1.66-4.24H5.24a3.69,3.69,0,0,0-3.68,3.69V95.93a3.69,3.69,0,0,0,3.68,3.69H21.69a2.45,2.45,0,0,0,1.84-4.06A37.37,37.37,0,0,1,14.72,71.43Z"/><path class="cls-4" d="M79.31,39.47a2.44,2.44,0,0,0-1.66,4.24,37.47,37.47,0,0,1,3.44,51.85,2.45,2.45,0,0,0,1.84,4.06H99.37a3.69,3.69,0,0,0,3.69-3.69V43.16a3.69,3.69,0,0,0-3.69-3.69Z"/><circle class="cls-5" cx="52.31" cy="71.43" r="15.04"/><rect class="cls-6" x="7.2" y="30.07" width="15.04" height="9.4"/><circle class="cls-2" cx="52.31" cy="13.16" r="13.16"/><path class="cls-4" d="M52.31,26.31a13,13,0,0,1-3.76-.55v8.07h7.52V25.76A13,13,0,0,1,52.31,26.31Z"/><circle class="cls-4" cx="52.31" cy="13.16" r="5.64"/><path class="cls-7" d="M74.86,30.07H29.75A1.88,1.88,0,0,0,27.87,32v5.64a1.88,1.88,0,1,0,3.76,0V33.83H73v3.76a1.88,1.88,0,0,0,3.76,0V32A1.88,1.88,0,0,0,74.86,30.07Z"/><rect class="cls-6" x="84.26" y="33.83" width="13.16" height="5.64"/><circle class="cls-8" cx="52.31" cy="67.67" r="5.64"/><circle class="cls-9" cx="52.31" cy="88.34" r="3.76"/></g></g></svg>