<svg id="Layer_1" data-name="Layer 1" xmlns="http://www.w3.org/2000/svg" viewBox="0 0 120 120"><defs><style>.cls-1{fill:#58595b;}</style></defs><path class="cls-1" d="M72.51,47.49c14,18.28-6.74,39-25,25C33.53,54.23,54.23,33.53,72.51,47.49Z"/><path class="cls-1" d="M100,29.78a17,17,0,0,0-9.73-9.73,28.4,28.4,0,0,0-9.52-1.76c-5.4-.25-7-.3-20.7-.3s-15.3,0-20.7.3a28.4,28.4,0,0,0-9.52,1.76,17,17,0,0,0-9.73,9.73,28.4,28.4,0,0,0-1.76,9.52c-.25,5.4-.3,7-.3,20.7s0,15.3.3,20.7a28.4,28.4,0,0,0,1.76,9.52A17,17,0,0,0,29.78,100a28.4,28.4,0,0,0,9.52,1.76c5.4.25,7,.3,20.7.3s15.3,0,20.7-.3A28.4,28.4,0,0,0,90.22,100,17,17,0,0,0,100,90.22a28.4,28.4,0,0,0,1.76-9.52c.25-5.4.3-7,.3-20.7s0-15.3-.3-20.7A28.4,28.4,0,0,0,100,29.78ZM78.12,80.13C50.64,99.58,20.42,69.37,39.86,42a8.8,8.8,0,0,1,2-2C69.36,20.47,99.63,50.69,80.13,78.18A8.86,8.86,0,0,1,78.12,80.13Zm13.74-43c-6.6,5-14-2.4-9-9C89.43,23.13,96.87,30.57,91.86,37.14Z"/></svg>