<svg id="Layer_1" data-name="Layer 1" xmlns="http://www.w3.org/2000/svg" viewBox="0 0 120 120"><defs><style>.cls-1{fill:#58595b;}</style></defs><path class="cls-1" d="M60,18h0A42,42,0,0,0,26,84.62l-5.24,15.61L36.9,95.07A42,42,0,1,0,60,18ZM84.45,77.31c-1,2.87-5,5.24-8.24,5.93-2.19.47-5.06.84-14.71-3.16C49.15,75,41.2,62.42,40.58,61.61s-5-6.65-5-12.67a13.4,13.4,0,0,1,4.3-10.23,6.12,6.12,0,0,1,4.29-1.51c.52,0,1,0,1.41,0,1.23,0,1.85.13,2.67,2.08,1,2.44,3.48,8.47,3.77,9.09a2.49,2.49,0,0,1,.18,2.27,7.27,7.27,0,0,1-1.36,1.93c-.62.71-1.21,1.26-1.83,2s-1.2,1.38-.49,2.62a37.4,37.4,0,0,0,6.82,8.47A30.78,30.78,0,0,0,65.2,71.8a2.65,2.65,0,0,0,3-.46A52.34,52.34,0,0,0,71.44,67a2.34,2.34,0,0,1,3-.91c1.13.39,7.13,3.36,8.37,4s2,.91,2.34,1.43S85.47,74.45,84.45,77.31Z"/></svg>