<svg xmlns="http://www.w3.org/2000/svg" width="69.84" height="69.84" viewBox="0 0 69.84 69.84">
  <g id="Iconos_Instagram" transform="translate(-25.08 -25.08)">
    <path id="Path_53" data-name="Path 53" d="M70.4,49.6C82,64.8,64.8,82,49.6,70.4,38,55.2,55.2,38,70.4,49.6Z" fill="#00155c"/>
    <path id="Path_54" data-name="Path 54" d="M93.21,34.88a14.14,14.14,0,0,0-8.09-8.09,23.67,23.67,0,0,0-7.91-1.46c-4.49-.21-5.84-.25-17.21-.25s-12.72,0-17.21.25a23.67,23.67,0,0,0-7.91,1.46,14.14,14.14,0,0,0-8.09,8.09,23.67,23.67,0,0,0-1.46,7.91c-.21,4.49-.25,5.84-.25,17.21s0,12.72.25,17.21a23.67,23.67,0,0,0,1.46,7.91,14.14,14.14,0,0,0,8.09,8.09,23.67,23.67,0,0,0,7.91,1.46c4.49.21,5.84.25,17.21.25s12.72,0,17.21-.25a23.67,23.67,0,0,0,7.91-1.46,14.14,14.14,0,0,0,8.09-8.09,23.67,23.67,0,0,0,1.46-7.91c.21-4.49.25-5.84.25-17.21s0-12.72-.25-17.21a23.67,23.67,0,0,0-1.46-7.91ZM75.06,76.73C52.22,92.9,27.1,67.79,43.26,45a7.05,7.05,0,0,1,1.68-1.68c22.84-16.18,48,8.94,31.79,31.79a7,7,0,0,1-1.67,1.62ZM86.48,41C81,45.17,74.83,39,79,33.52,84.46,29.35,90.65,35.54,86.48,41Z" fill="#00155c"/>
  </g>
</svg>
