<svg xmlns="http://www.w3.org/2000/svg" viewBox="0 0 329.78 62.62"><defs><style>.cls-1{fill:#00155c;}</style></defs><title>Asset 3</title><g id="Layer_2" data-name="Layer 2"><g id="Capa_1" data-name="Capa 1"><path class="cls-1" d="M86,21.7a5.67,5.67,0,0,0,.11.75,5,5,0,0,0,.21.78,2.36,2.36,0,0,0,.39.69,1.24,1.24,0,0,0,.65.44,4.69,4.69,0,0,0,1,.2l.64,0c.14,0,.2.05.2.13s-.05.14-.15.17a1,1,0,0,1-.37.05H87.9c-.37,0-.77,0-1.2,0l-1.27,0-1-.05a4.3,4.3,0,0,1-.56-.1c-.09,0-.14-.09-.14-.16s.06-.15.18-.17.11-.12.12-.29a2.66,2.66,0,0,0,0-.62L82.83,10.5h-.07L76.61,23.55l-.53,1.08c-.08.17-.18.25-.3.25s-.18-.08-.28-.23-.27-.47-.5-.92-.4-.77-.72-1.39l-.94-1.9c-.31-.63-.6-1.2-.85-1.69s-.39-.78-.43-.84l-.3-.63c-.16-.35-.37-.78-.6-1.27s-.48-1-.74-1.59l-.74-1.61q-.36-.75-.6-1.32c-.17-.37-.28-.62-.33-.74h-.1l-1,11.65q0,.3,0,.63v.65a.73.73,0,0,0,.19.5.83.83,0,0,0,.46.28,5.46,5.46,0,0,0,.58.1l.38,0c.13,0,.2.05.2.13s-.15.22-.46.22h-.72l-.72,0-.57,0h-.64l-.57,0-.64,0h-.58c-.28,0-.42-.07-.42-.22s.08-.13.25-.13h.31l.44-.06a.94.94,0,0,0,.78-.74,10.13,10.13,0,0,0,.22-1.34L67.92,6.06c0-.3.13-.45.28-.45s.26.12.37.37l7.69,15.79L83.63,6c.12-.27.25-.4.38-.4s.25.22.3.68Z"/><path class="cls-1" d="M97,9.22a4.88,4.88,0,0,1,.31-.68.27.27,0,0,1,.22-.15.3.3,0,0,1,.27.21,4.23,4.23,0,0,0,.26.57c.07.15.21.5.44,1.05s.5,1.22.81,2l1.05,2.56c.37.93.74,1.85,1.11,2.75s.72,1.76,1,2.57.61,1.49.85,2a7.94,7.94,0,0,0,.56,1.16,4.81,4.81,0,0,0,.5.68,2,2,0,0,0,.44.35,2.7,2.7,0,0,0,.38.15,2.94,2.94,0,0,0,.48.1l.4,0a.53.53,0,0,1,.18,0,.14.14,0,0,1,.09.14c0,.07-.05.11-.15.14a1.83,1.83,0,0,1-.35,0h-2.35c-.37,0-.75,0-1.14,0l-.55,0c-.15,0-.23-.05-.23-.11s0-.08,0-.09l.11-.07a.77.77,0,0,0,.22-.17c.07-.08.07-.22,0-.4l-2-4.9a.24.24,0,0,0-.2-.13H94.71a.25.25,0,0,0-.23.18l-1.26,3.42A4.25,4.25,0,0,0,92.9,24a.47.47,0,0,0,.24.45,1.13,1.13,0,0,0,.51.12h.2c.15,0,.23.06.23.18s-.11.17-.33.17h-.5l-.6,0-.54,0h-.65l-.56,0-.67,0h-.7c-.28,0-.42-.05-.42-.17s.06-.18.2-.18h.32a2.11,2.11,0,0,0,.33,0,1.59,1.59,0,0,0,1.14-.62,6.56,6.56,0,0,0,.72-1.33Zm2.47,8.89c.06,0,.09-.05.07-.15l-2.18-5.85c-.14-.32-.26-.32-.38,0L94.93,18c0,.1,0,.15.08.15Z"/><path class="cls-1" d="M109.31,15V11.71c0-.34,0-.6,0-.8s0-.36,0-.53a2.13,2.13,0,0,0-.2-.83c-.1-.19-.33-.3-.7-.35a2.43,2.43,0,0,0-.37,0h-.38a.16.16,0,0,1-.18-.18c0-.12.12-.18.35-.18l.82,0h3.86l.69,0A14.36,14.36,0,0,1,115.3,9a4.69,4.69,0,0,1,2,.76,4,4,0,0,1,.46.42,3.41,3.41,0,0,1,.51.64,4.08,4.08,0,0,1,.4.84,3,3,0,0,1,.16,1,5.39,5.39,0,0,1-.59,2.38,8.46,8.46,0,0,1-2.12,2.5c.9,1.13,1.74,2.17,2.51,3.11s1.47,1.74,2.11,2.41a5.2,5.2,0,0,0,1.46,1.16,3.46,3.46,0,0,0,1,.32l.5.06H124c.13,0,.2.06.2.18s0,.11-.11.14a2,2,0,0,1-.42,0h-1.38a8.47,8.47,0,0,1-1.44-.09,3.47,3.47,0,0,1-.92-.33,4.83,4.83,0,0,1-1.39-1.15c-.45-.52-1-1.19-1.62-2-.23-.28-.47-.58-.7-.89l-.67-.88-.58-.76c-.17-.24-.32-.43-.44-.58a.38.38,0,0,0-.3-.13l-2.81-.05q-.15,0-.15.18v.5c0,1,0,1.95,0,2.75s0,1.41.09,1.85a2.09,2.09,0,0,0,.21.76.86.86,0,0,0,.67.36c.15,0,.33.06.53.08l.45,0c.11,0,.17.06.17.18s-.11.17-.35.17h-.91l-.86,0-.65,0h-.29l-.84,0-.71,0h-.63c-.24,0-.35-.05-.35-.17s0-.18.17-.18l.34,0a2.44,2.44,0,0,0,.34-.08.52.52,0,0,0,.42-.36c0-.19.11-.45.16-.76a14,14,0,0,0,.11-1.86c0-.81,0-1.73,0-2.76Zm1.91,1.81a.29.29,0,0,0,.15.27,1.37,1.37,0,0,0,.38.13l.59.1.71.08.76,0a7.83,7.83,0,0,0,.82-.05,1.69,1.69,0,0,0,.83-.33,2.7,2.7,0,0,0,1-1.2,5,5,0,0,0,.37-2.06,4.42,4.42,0,0,0-1-3.1A3.63,3.63,0,0,0,113,9.55c-.34,0-.65,0-1,0a4.56,4.56,0,0,0-.62.09.29.29,0,0,0-.18.25Z"/><path class="cls-1" d="M129.75,24.63a8.79,8.79,0,0,1-3-1.7,7.39,7.39,0,0,1-1.33-1.5,7.63,7.63,0,0,1-.83-1.6,8.16,8.16,0,0,1-.42-1.65A12.6,12.6,0,0,1,124,16.6a8.82,8.82,0,0,1,.11-1.24,9.24,9.24,0,0,1,.39-1.5,8.73,8.73,0,0,1,.77-1.57,8.42,8.42,0,0,1,1.22-1.51,6.92,6.92,0,0,1,1.14-.89,7.65,7.65,0,0,1,1.46-.73,9.72,9.72,0,0,1,1.83-.49,13.26,13.26,0,0,1,2.3-.18c.43,0,.94,0,1.53.07s1.14.1,1.68.18.8.16,1.17.22a7.74,7.74,0,0,0,1.09.11c.18,0,.27.08.27.23s0,.21,0,.37,0,.45-.08.83c0,.18,0,.39,0,.6s0,.44,0,.66,0,.39,0,.56,0,.3,0,.37c0,.29-.1.45-.25.45s-.17-.16-.17-.45a3,3,0,0,0-.26-1.21,2.48,2.48,0,0,0-.67-.93,4.83,4.83,0,0,0-1.72-.84,9.12,9.12,0,0,0-2.63-.34,11.24,11.24,0,0,0-1.85.13,6.84,6.84,0,0,0-1.4.34,5.2,5.2,0,0,0-1,.47,6.42,6.42,0,0,0-.72.54,5.25,5.25,0,0,0-1.6,2.54,11.77,11.77,0,0,0-.38,3,7.51,7.51,0,0,0,.58,2.93,7.63,7.63,0,0,0,1.63,2.48,7.87,7.87,0,0,0,2.51,1.69,8.07,8.07,0,0,0,3.24.63,10.6,10.6,0,0,0,2.12-.18,2.87,2.87,0,0,0,1.52-.83,2.57,2.57,0,0,0,.57-.91,4,4,0,0,0,.28-.87c0-.12.06-.2.08-.24s.06-.06.15-.06.09,0,.14.09a.37.37,0,0,1,.06.21s0,.16-.05.39-.08.48-.13.77-.11.57-.17.86-.13.53-.18.72a1.35,1.35,0,0,1-.19.4,1.49,1.49,0,0,1-.36.23,6.65,6.65,0,0,1-1.79.37c-.75.07-1.48.1-2.2.1A13.32,13.32,0,0,1,129.75,24.63Z"/><path class="cls-1" d="M142.31,14.08a8.35,8.35,0,0,1,4.3-4.77,8.91,8.91,0,0,1,3.94-.82,10.56,10.56,0,0,1,3.47.56,8,8,0,0,1,2.77,1.59,7.25,7.25,0,0,1,1.83,2.52,8,8,0,0,1,.67,3.34,9,9,0,0,1-.64,3.38,8.64,8.64,0,0,1-1.79,2.77,8.54,8.54,0,0,1-2.8,1.87,9.32,9.32,0,0,1-3.63.69,9.09,9.09,0,0,1-3.89-.76,7.86,7.86,0,0,1-4.24-4.7,9,9,0,0,1-.51-2.92A8.46,8.46,0,0,1,142.31,14.08Zm2.3,5.52a7.67,7.67,0,0,0,1.46,2.55,6.62,6.62,0,0,0,2.21,1.62,6.71,6.71,0,0,0,2.78.56,7.48,7.48,0,0,0,1.77-.26,5.19,5.19,0,0,0,2-1,6.22,6.22,0,0,0,1.59-2.2A9.08,9.08,0,0,0,157,17.1a9.73,9.73,0,0,0-.54-3.37A7.11,7.11,0,0,0,155,11.28a6.22,6.22,0,0,0-2.11-1.48,6.31,6.31,0,0,0-2.5-.5,7,7,0,0,0-2.55.44,5.33,5.33,0,0,0-2,1.3,6.1,6.1,0,0,0-1.32,2.17,9.07,9.07,0,0,0-.47,3A9.77,9.77,0,0,0,144.61,19.6Z"/><path class="cls-1" d="M188.48,17.65c0,1.21,0,2.29,0,3.23a19.57,19.57,0,0,0,.12,2.22,2.89,2.89,0,0,0,.22.93.89.89,0,0,0,.76.45l.61.08.52,0c.13,0,.2.05.2.16s-.14.19-.41.19h-1l-1,0-.72,0h-.68l-.67,0-.77,0H185c-.27,0-.4-.06-.4-.19s.06-.16.2-.16l.37,0,.38-.08A.68.68,0,0,0,186,24a4.61,4.61,0,0,0,.21-.93c.06-.53.1-1.27.11-2.22s0-2,0-3.23V15a.13.13,0,0,0-.15-.15H175.58a.13.13,0,0,0-.15.15v2.63c0,1.21,0,2.29,0,3.23s.05,1.69.11,2.22a2.88,2.88,0,0,0,.23.93.88.88,0,0,0,.75.45l.62.08.51,0c.14,0,.2.05.2.16s-.13.19-.4.19h-1.05l-1,0-.73,0H174l-.67,0-.78,0h-.68c-.26,0-.4-.06-.4-.19s.07-.16.2-.16l.38,0,.38-.08A.65.65,0,0,0,173,24a4.55,4.55,0,0,0,.22-.93c.06-.53.1-1.27.11-2.22s0-2,0-3.23V9.37c0-.38,0-.69,0-.91s0-.44,0-.64a2.2,2.2,0,0,0-.25-1,1.16,1.16,0,0,0-.83-.45,1.38,1.38,0,0,0-.41-.07h-.44c-.14,0-.2,0-.2-.15s.13-.2.4-.2h.9l.89,0L174,6h.67l.67,0,.78,0h.68c.26,0,.4.06.4.2s-.07.15-.2.15h-.27a2.45,2.45,0,0,0-.36.07.91.91,0,0,0-.69.43,2.4,2.4,0,0,0-.24,1c0,.2,0,.41,0,.64s0,.53,0,.91v4.4c0,.09,0,.14.15.14h10.64c.1,0,.15-.05.15-.14V9.37c0-.38,0-.69,0-.91s0-.44,0-.64a2.07,2.07,0,0,0-.25-1,1.16,1.16,0,0,0-.83-.45,1.38,1.38,0,0,0-.41-.07h-.44c-.13,0-.2,0-.2-.15s.13-.2.4-.2h.9l.9,0,.7,0h.68l.66,0,.78,0h.68c.27,0,.4.06.4.2s-.07.15-.2.15h-.27a2.45,2.45,0,0,0-.36.07,1,1,0,0,0-.69.43,2.75,2.75,0,0,0-.24,1c0,.2,0,.41,0,.64s0,.53,0,.91v8.28Z"/><path class="cls-1" d="M196.84,15V11.71c0-.34,0-.6,0-.8s0-.36,0-.53a2.13,2.13,0,0,0-.2-.83c-.1-.19-.33-.3-.7-.35a2.6,2.6,0,0,0-.37,0h-.39c-.11,0-.17-.06-.17-.18s.12-.18.35-.18l.8,0h7a5.48,5.48,0,0,0,.61-.06l.4-.06.15-.07a.4.4,0,0,1,.15,0c.06,0,.1.07.1.2a1.35,1.35,0,0,1-.06.34,3.79,3.79,0,0,0-.12.66s0,.14,0,.27,0,.26,0,.41,0,.29,0,.43a1.87,1.87,0,0,1,0,.3.55.55,0,0,1-.08.15.14.14,0,0,1-.12.08c-.12,0-.18-.1-.18-.28a2.61,2.61,0,0,0,0-.34,1.43,1.43,0,0,0-.09-.41,1.28,1.28,0,0,0-.14-.23.7.7,0,0,0-.27-.17,2.2,2.2,0,0,0-.45-.14c-.18,0-.43-.08-.73-.12l-.62,0-1,0H199c-.09,0-.13.07-.13.22v5.8c0,.15,0,.23.13.23h2.93c.37,0,.62,0,.76,0l.65-.09a.76.76,0,0,0,.43-.21c.18-.19.29-.28.32-.28s.13.06.13.18a1.56,1.56,0,0,1-.07.37,6.72,6.72,0,0,0-.11.8,8,8,0,0,0-.07.8c0,.31,0,.5,0,.59a.82.82,0,0,1,0,.26.16.16,0,0,1-.16.14c-.1,0-.15-.07-.15-.2s0-.21,0-.33a1.59,1.59,0,0,0-.09-.38.77.77,0,0,0-.27-.4,1.87,1.87,0,0,0-.86-.25l-.73,0-1,0H199a.13.13,0,0,0-.15.15v5.43a3.81,3.81,0,0,0,.13.86.9.9,0,0,0,.38.53,2,2,0,0,0,.8.25,11.56,11.56,0,0,0,1.33.06l1.1,0a3.25,3.25,0,0,0,1.1-.19,1.8,1.8,0,0,0,.67-.52,2.18,2.18,0,0,0,.34-1c.05-.22.12-.33.23-.33a.12.12,0,0,1,.12.1.79.79,0,0,1,0,.23,2.71,2.71,0,0,1,0,.31c0,.17,0,.38-.08.6s-.06.44-.1.65a2.75,2.75,0,0,1-.1.49.69.69,0,0,1-.13.31.46.46,0,0,1-.22.17.94.94,0,0,1-.34.06h-.54l-2.21,0-1.63-.05c-.47,0-.85-.05-1.15-.05h-1l-.63,0c-.22,0-.44,0-.67,0h-.61c-.24,0-.35-.05-.35-.17s.05-.18.17-.18l.34,0,.34-.07a.46.46,0,0,0,.41-.35,6.14,6.14,0,0,0,.17-.77,15.94,15.94,0,0,0,.11-1.86c0-.81,0-1.73,0-2.76Z"/><path class="cls-1" d="M210.67,15V11.71c0-.34,0-.6,0-.8s0-.36,0-.53a2.13,2.13,0,0,0-.2-.83c-.1-.19-.33-.3-.7-.35a2.6,2.6,0,0,0-.37,0H209c-.11,0-.17-.06-.17-.18s.12-.18.35-.18l.82,0h3.86l.69,0a14.36,14.36,0,0,1,2.15.17,4.69,4.69,0,0,1,2,.76,4,4,0,0,1,.46.42,3.41,3.41,0,0,1,.51.64,4.67,4.67,0,0,1,.4.84,3,3,0,0,1,.16,1,5.39,5.39,0,0,1-.59,2.38,8.46,8.46,0,0,1-2.12,2.5c.9,1.13,1.74,2.17,2.51,3.11s1.47,1.74,2.11,2.41a5.2,5.2,0,0,0,1.46,1.16,3.46,3.46,0,0,0,1,.32l.5.06h.28c.13,0,.2.06.2.18s0,.11-.11.14a2,2,0,0,1-.42,0H223.6a8.47,8.47,0,0,1-1.44-.09,3.47,3.47,0,0,1-.92-.33,4.83,4.83,0,0,1-1.39-1.15c-.45-.52-1-1.19-1.62-2-.24-.28-.47-.58-.7-.89l-.67-.88-.58-.76c-.17-.24-.32-.43-.44-.58a.38.38,0,0,0-.3-.13l-2.81-.05q-.15,0-.15.18v.5c0,1,0,1.95,0,2.75s0,1.41.09,1.85a1.91,1.91,0,0,0,.21.76.86.86,0,0,0,.67.36c.15,0,.33.06.53.08l.45,0c.11,0,.17.06.17.18s-.11.17-.35.17h-.91l-.86,0-.65,0h-.29l-.84,0-.72,0h-.62c-.24,0-.35-.05-.35-.17s0-.18.17-.18l.34,0a2.44,2.44,0,0,0,.34-.08.51.51,0,0,0,.41-.36,5.56,5.56,0,0,0,.17-.76,15.94,15.94,0,0,0,.11-1.86c0-.81,0-1.73,0-2.76Zm1.91,1.81a.29.29,0,0,0,.15.27,1.37,1.37,0,0,0,.38.13l.59.1.71.08.75,0a7.86,7.86,0,0,0,.83-.05,1.73,1.73,0,0,0,.83-.33,2.7,2.7,0,0,0,1-1.2,5,5,0,0,0,.37-2.06,4.42,4.42,0,0,0-1-3.1,3.63,3.63,0,0,0-2.8-1.09c-.34,0-.65,0-1,0a4.56,4.56,0,0,0-.62.09.29.29,0,0,0-.18.25Z"/><path class="cls-1" d="M228.47,22c0,.43,0,.79.07,1.09a4.48,4.48,0,0,0,.15.72,1,1,0,0,0,.26.43.87.87,0,0,0,.37.19,4.14,4.14,0,0,0,.63.1l.48,0c.11,0,.17.06.17.18s-.13.17-.4.17c-.64,0-1.16,0-1.57,0l-.76,0-.77,0c-.41,0-.86,0-1.37,0-.23,0-.35-.05-.35-.17a.16.16,0,0,1,.18-.18l.39,0a3.06,3.06,0,0,0,.51-.1.7.7,0,0,0,.33-.2,1.19,1.19,0,0,0,.19-.45,5.1,5.1,0,0,0,.08-.8c0-.32,0-.73,0-1.21V9.58a2.66,2.66,0,0,1,.09-.87c0-.15.12-.22.21-.22a.67.67,0,0,1,.44.24l.41.42c.09.08.34.34.76.79s.94,1,1.58,1.66,1.35,1.43,2.16,2.26,1.63,1.7,2.48,2.57l1.65,1.72,1.53,1.62,1.25,1.33.79.82-.22-10.69A5.49,5.49,0,0,0,240,9.77a.79.79,0,0,0-.65-.52,6,6,0,0,0-.63-.08l-.45,0c-.08,0-.14,0-.15-.08a.35.35,0,0,1,0-.13c0-.1.14-.15.43-.15.5,0,1,0,1.43,0l.88,0c.13,0,.37,0,.7,0s.73,0,1.18,0c.27,0,.4.05.4.15a.22.22,0,0,1-.06.13.23.23,0,0,1-.19.08h-.2a1.09,1.09,0,0,0-.32,0,.9.9,0,0,0-.43.17.82.82,0,0,0-.23.34,2.37,2.37,0,0,0-.1.54c0,.22,0,.48,0,.8l0,12.5c0,.36,0,.63,0,.83s0,.36,0,.47a.46.46,0,0,1,0,.2.18.18,0,0,1-.09,0,.32.32,0,0,1-.17-.06,1.54,1.54,0,0,1-.29-.18c-.13-.1-.29-.22-.48-.39l-.74-.68-.67-.64c-.39-.38-.86-.84-1.41-1.4L235.8,19.9,233.94,18l-1.87-2-1.69-1.79L229,12.84l-.81-.88Z"/><path class="cls-1" d="M251.81,9.22a7.28,7.28,0,0,1,.3-.68.29.29,0,0,1,.23-.15c.12,0,.2.08.26.21s.15.34.27.57.21.5.44,1.05.49,1.22.81,2,.67,1.63,1,2.56l1.12,2.75c.37.9.72,1.76,1,2.57s.61,1.49.84,2a7.84,7.84,0,0,0,.57,1.16,4.14,4.14,0,0,0,.5.68,2,2,0,0,0,.44.35,2.3,2.3,0,0,0,.38.15,2.83,2.83,0,0,0,.47.1l.4,0a.58.58,0,0,1,.19,0,.14.14,0,0,1,.09.14c0,.07-.05.11-.15.14a1.83,1.83,0,0,1-.35,0h-2.35c-.37,0-.75,0-1.14,0l-.55,0c-.15,0-.23-.05-.23-.11s0-.08,0-.09l.11-.07a.77.77,0,0,0,.22-.17c.07-.08.07-.22,0-.4l-2-4.9a.24.24,0,0,0-.2-.13h-5.1c-.1,0-.17.06-.22.18L248,22.58A4,4,0,0,0,247.7,24a.45.45,0,0,0,.24.45,1.07,1.07,0,0,0,.51.12h.2c.15,0,.23.06.23.18s-.11.17-.33.17h-.5l-.6,0-.54,0h-.66l-.55,0-.68,0h-.69c-.28,0-.42-.05-.42-.17s.06-.18.2-.18h.32a2.11,2.11,0,0,0,.33,0,1.59,1.59,0,0,0,1.14-.62,6.56,6.56,0,0,0,.72-1.33Zm2.46,8.89c.07,0,.1-.05.08-.15l-2.19-5.85c-.13-.32-.26-.32-.37,0L249.73,18c0,.1,0,.15.07.15Zm1.61-13.32c.1.17.22.39.35.64s.08.2,0,.24a.2.2,0,0,1-.14.06l-.24,0a1.84,1.84,0,0,0-.51,0q-.45.06-1,.18c-.36.08-.72.17-1.07.27l-1,.32c-.31.11-.57.2-.77.29a1.67,1.67,0,0,1-.37.12c-.09,0-.13,0-.13-.15s.06-.13.17-.2l.88-.58,1.1-.69c.36-.22.68-.42.95-.57l.49-.29c.22-.14.37-.22.46-.27a.69.69,0,0,1,.24-.06c.07,0,.15.08.25.23S255.78,4.62,255.88,4.79Z"/><path class="cls-1" d="M265,22c0,.43,0,.79.08,1.09a3,3,0,0,0,.15.72.92.92,0,0,0,.25.43.85.85,0,0,0,.38.19,4.22,4.22,0,0,0,.62.1l.48,0a.16.16,0,0,1,.18.18c0,.12-.14.17-.4.17-.64,0-1.16,0-1.57,0l-.77,0-.77,0c-.41,0-.86,0-1.36,0-.24,0-.35-.05-.35-.17s.05-.18.17-.18l.39,0a2.71,2.71,0,0,0,.51-.1.62.62,0,0,0,.33-.2,1.05,1.05,0,0,0,.19-.45,6.42,6.42,0,0,0,.09-.8c0-.32,0-.73,0-1.21V9.58a2.66,2.66,0,0,1,.09-.87c.06-.15.13-.22.21-.22a.65.65,0,0,1,.44.24l.42.42.75.79,1.58,1.66c.64.68,1.36,1.43,2.16,2.26s1.63,1.7,2.48,2.57c.56.57,1.1,1.14,1.65,1.72L275,19.77l1.26,1.33c.35.38.62.65.79.82l-.23-10.69a5.1,5.1,0,0,0-.18-1.46.78.78,0,0,0-.65-.52,6.17,6.17,0,0,0-.62-.08l-.46,0a.14.14,0,0,1-.15-.08.32.32,0,0,1,0-.13q0-.15.42-.15c.5,0,1,0,1.43,0l.88,0c.14,0,.37,0,.71,0s.72,0,1.17,0c.27,0,.41.05.41.15a.22.22,0,0,1-.06.13.26.26,0,0,1-.19.08h-.2a1.1,1.1,0,0,0-.33,0,1,1,0,0,0-.43.17.8.8,0,0,0-.22.34,2.33,2.33,0,0,0-.11.54c0,.22,0,.48,0,.8l-.05,12.5c0,.36,0,.63,0,.83s0,.36,0,.47a.28.28,0,0,1-.05.2.13.13,0,0,1-.09,0,.38.38,0,0,1-.17-.06,2,2,0,0,1-.29-.18l-.48-.39-.74-.68-.66-.64c-.4-.38-.87-.84-1.42-1.4s-1.15-1.18-1.81-1.84L270.52,18l-1.87-2L267,14.25c-.52-.54-1-1-1.34-1.41l-.82-.88Z"/><path class="cls-1" d="M285,15V11.71c0-.34,0-.6,0-.8s0-.36,0-.53a2.13,2.13,0,0,0-.2-.83c-.1-.19-.33-.3-.7-.35a2.43,2.43,0,0,0-.37,0h-.38a.16.16,0,0,1-.18-.18c0-.12.12-.18.35-.18l.81,0H288l1,0,1.95,0a14.82,14.82,0,0,1,2.33.21,10.09,10.09,0,0,1,2.41.72,7,7,0,0,1,2.18,1.49,8.18,8.18,0,0,1,1.49,2.17,7.33,7.33,0,0,1,.66,3.25,8.33,8.33,0,0,1-.2,1.9,9.55,9.55,0,0,1-.52,1.64,7.85,7.85,0,0,1-.77,1.37,10.21,10.21,0,0,1-.89,1.09,6.51,6.51,0,0,1-.92.8,6.35,6.35,0,0,1-1.38.79,10.09,10.09,0,0,1-1.9.62,11.07,11.07,0,0,1-2.5.25c-.49,0-1,0-1.55,0s-1.06-.05-1.54-.09l-1.23-.08-.58,0h-.9c-.24,0-.47,0-.7,0h-.63c-.23,0-.35-.05-.35-.17s.06-.18.17-.18l.34,0a2.44,2.44,0,0,0,.34-.08.52.52,0,0,0,.42-.36c.05-.19.11-.45.16-.76A14,14,0,0,0,285,21.5c0-.81,0-1.73,0-2.76Zm2,2.31v3c0,.4,0,.74,0,1s0,.48,0,.58c0,.27,0,.57.07.88a1.3,1.3,0,0,0,.18.65,1.19,1.19,0,0,0,.32.31,2.45,2.45,0,0,0,.64.27,6.87,6.87,0,0,0,1.07.2,14.62,14.62,0,0,0,1.63.08,8.05,8.05,0,0,0,2.85-.49,6.87,6.87,0,0,0,2.32-1.44,4.14,4.14,0,0,0,.76-1,7.62,7.62,0,0,0,.54-1.23,9,9,0,0,0,.32-1.41,9.11,9.11,0,0,0,.12-1.47,8.11,8.11,0,0,0-.2-1.84,8.77,8.77,0,0,0-.51-1.5,5.53,5.53,0,0,0-.67-1.16c-.26-.33-.49-.61-.71-.84a7.72,7.72,0,0,0-1.62-1.26,7.28,7.28,0,0,0-1.74-.72,9.53,9.53,0,0,0-1.86-.33c-.64-.05-1.28-.07-1.93-.07a7.32,7.32,0,0,0-.76,0,5,5,0,0,0-.57.1.41.41,0,0,0-.28.43Z"/><path class="cls-1" d="M305.33,15V11.71c0-.34,0-.6,0-.8s0-.36,0-.53a2.13,2.13,0,0,0-.2-.83c-.1-.19-.33-.3-.7-.35a2.6,2.6,0,0,0-.37,0h-.39c-.11,0-.17-.06-.17-.18s.12-.18.35-.18l.8,0h7a5.07,5.07,0,0,0,.6-.06l.4-.06.16-.07a.4.4,0,0,1,.15,0c.06,0,.1.07.1.2a1.07,1.07,0,0,1-.07.34,4,4,0,0,0-.11.66s0,.14,0,.27,0,.26,0,.41,0,.29,0,.43a1.87,1.87,0,0,1,0,.3,1.09,1.09,0,0,1-.08.15.14.14,0,0,1-.12.08c-.12,0-.18-.1-.18-.28a2.61,2.61,0,0,0,0-.34,1.45,1.45,0,0,0-.1-.41.86.86,0,0,0-.13-.23.7.7,0,0,0-.27-.17,2.69,2.69,0,0,0-.45-.14c-.18,0-.43-.08-.73-.12l-.62,0-1,0h-1.55c-.08,0-.12.07-.12.22v5.8c0,.15,0,.23.12.23h2.94c.37,0,.62,0,.75,0l.66-.09a.73.73,0,0,0,.42-.21,1.25,1.25,0,0,1,.33-.28q.12,0,.12.18a2,2,0,0,1-.06.37,6.72,6.72,0,0,0-.11.8c0,.23-.06.49-.08.8s0,.5,0,.59a.82.82,0,0,1,0,.26.16.16,0,0,1-.16.14c-.1,0-.15-.07-.15-.2s0-.21,0-.33a1.59,1.59,0,0,0-.09-.38.77.77,0,0,0-.27-.4,1.87,1.87,0,0,0-.86-.25l-.73,0-1,0h-1.58a.13.13,0,0,0-.15.15v5.43a3.87,3.87,0,0,0,.12.86,1,1,0,0,0,.39.53,1.93,1.93,0,0,0,.79.25,11.8,11.8,0,0,0,1.33.06l1.11,0a3.25,3.25,0,0,0,1.1-.19,1.8,1.8,0,0,0,.67-.52,2.18,2.18,0,0,0,.34-1c.05-.22.12-.33.22-.33a.12.12,0,0,1,.13.1,1.4,1.4,0,0,1,0,.23s0,.13,0,.31,0,.38-.08.6-.06.44-.1.65a2.75,2.75,0,0,1-.1.49.69.69,0,0,1-.14.31.39.39,0,0,1-.21.17,1,1,0,0,1-.34.06H312l-2.21,0-1.63-.05c-.47,0-.85-.05-1.15-.05h-1l-.62,0c-.22,0-.44,0-.67,0h-.61c-.24,0-.36-.05-.36-.17a.16.16,0,0,1,.18-.18l.34,0,.34-.07a.47.47,0,0,0,.41-.35c.06-.2.11-.46.17-.77a15.94,15.94,0,0,0,.11-1.86c0-.81,0-1.73,0-2.76Z"/><path class="cls-1" d="M325.46,23.93c.59,0,1.07,0,1.46-.06a4.74,4.74,0,0,0,.95-.2,2.38,2.38,0,0,0,.6-.31,2.78,2.78,0,0,0,.43-.41,1.4,1.4,0,0,0,.29-.56c.07-.24.13-.44.16-.59s.14-.33.25-.33a.13.13,0,0,1,.14.09,1.09,1.09,0,0,1,0,.39,4.68,4.68,0,0,1,0,.59c0,.22-.08.45-.13.69s-.1.46-.15.66l-.12.52a1,1,0,0,1-.19.47.83.83,0,0,1-.46.08c-1.86,0-3.72,0-5.59-.05s-3.77-.05-5.71-.05c-.27,0-.4-.06-.4-.17a.52.52,0,0,1,0-.22,2.5,2.5,0,0,1,.25-.44q2.5-3.62,4.92-7.15t4.69-7.13h-4.67c-.57,0-1.14,0-1.73,0a3.33,3.33,0,0,0-1.4.31,2.27,2.27,0,0,0-.9.8,2.44,2.44,0,0,0-.36.88c0,.17-.07.28-.13.32a.24.24,0,0,1-.17.06c-.08,0-.13-.09-.13-.28s0-.22.05-.46.08-.51.13-.81l.15-.87c0-.3.09-.53.13-.69s.08-.4.2-.4a.75.75,0,0,1,.32.06,2.35,2.35,0,0,0,.61.08c1.05,0,1.87.05,2.46.05H329q.45,0,.45.18a.67.67,0,0,1,0,.18.53.53,0,0,1-.1.2q-2.43,3.72-4.84,7.29t-4.92,7.24Z"/><path class="cls-1" d="M67.71,43.36V39.5c0-.39,0-.69,0-.92s0-.44,0-.64a2.39,2.39,0,0,0-.25-1,1.18,1.18,0,0,0-.83-.45,1.17,1.17,0,0,0-.42-.06l-.44,0c-.13,0-.2,0-.2-.15s.14-.2.41-.2l.9,0,.89,0,.7,0h.78l.81,0,1,0,1.13,0,2.2,0a14.56,14.56,0,0,1,2.64.26,11.68,11.68,0,0,1,2.74.84,8.09,8.09,0,0,1,2.49,1.74,10.68,10.68,0,0,1,.91,1.13,8.3,8.3,0,0,1,.78,1.42,8.75,8.75,0,0,1,.54,1.75,10.34,10.34,0,0,1,.2,2.08,10.48,10.48,0,0,1-.83,4.18A10.33,10.33,0,0,1,83,51.12a10.61,10.61,0,0,1-1,1.28,10.41,10.41,0,0,1-1,.93,8.46,8.46,0,0,1-1.57.94,11.6,11.6,0,0,1-2.16.73,12.67,12.67,0,0,1-2.83.28c-.54,0-1.12,0-1.75,0l-1.74-.11c-.56,0-1-.06-1.41-.1L68.76,55h-.32l-.68,0L67,55l-.68,0c-.27,0-.4-.07-.4-.2s.07-.15.2-.15l.38,0a2,2,0,0,0,.37-.07.66.66,0,0,0,.52-.46,4.66,4.66,0,0,0,.21-.92A19.93,19.93,0,0,0,67.7,51c0-.94,0-2,0-3.22Zm2.11,2.71V48c0,.6,0,1.15,0,1.63s0,.9,0,1.23,0,.56,0,.68a4.7,4.7,0,0,0,0,.51c0,.2,0,.39,0,.57a3.49,3.49,0,0,0,.08.5.88.88,0,0,0,.12.33,2,2,0,0,0,.39.35,3,3,0,0,0,.75.32,6.58,6.58,0,0,0,1.26.24,16.34,16.34,0,0,0,1.87.09,9,9,0,0,0,3.3-.6,7.65,7.65,0,0,0,2.67-1.73,5.22,5.22,0,0,0,.86-1.16,8.93,8.93,0,0,0,.64-1.47,10.61,10.61,0,0,0,.39-1.64,12.47,12.47,0,0,0,.12-1.73,9.84,9.84,0,0,0-.22-2.19,9.42,9.42,0,0,0-.59-1.77,9.84,9.84,0,0,0-.79-1.38,12.06,12.06,0,0,0-.81-1,7.76,7.76,0,0,0-1.86-1.49,9,9,0,0,0-2-.87A10.12,10.12,0,0,0,74,37c-.72-.06-1.46-.1-2.22-.1l-.43,0-.49,0-.44.07-.27.06a.49.49,0,0,0-.3.5c0,.22,0,.53,0,.93s0,.85,0,1.36v6.17Z"/><path class="cls-1" d="M92.16,48.86c0,1,0,2,0,2.76s0,1.42.09,1.86a2.6,2.6,0,0,0,.17.76.75.75,0,0,0,.63.37,4.34,4.34,0,0,0,.55.07l.45,0c.12,0,.18.06.18.17s-.12.18-.35.18H93l-.88,0-.66,0-.29,0-.3,0-.59,0-.69,0H89q-.36,0-.36-.18c0-.11.06-.17.18-.17l.34,0a1.7,1.7,0,0,0,.34-.07.53.53,0,0,0,.42-.37,3.08,3.08,0,0,0,.15-.76,16.37,16.37,0,0,0,.1-1.86q0-1.21,0-2.76v-7c0-.33,0-.6,0-.79s0-.37,0-.54a2.08,2.08,0,0,0-.2-.82.74.74,0,0,0-.5-.34L89,39.28h-.3c-.12,0-.18-.06-.18-.17s.12-.18.36-.18h1.33l.6,0h.59l.59,0h1.33c.23,0,.35.06.35.18s-.06.17-.18.17h-.25a1.07,1.07,0,0,0-.3,0,.87.87,0,0,0-.59.35,2.41,2.41,0,0,0-.19.83c0,.17,0,.35,0,.54s0,.46,0,.79v7Z"/><path class="cls-1" d="M99.61,55.21a5.41,5.41,0,0,1-1.55-.45c-.16-.09-.25-.17-.28-.26a1.93,1.93,0,0,1,0-.55c0-.53,0-1,0-1.39s.06-.68.08-.87,0-.35.17-.35.2.09.2.25,0,.2,0,.34a2.24,2.24,0,0,0,.07.44,2.14,2.14,0,0,0,.47,1,2.71,2.71,0,0,0,.85.65,4,4,0,0,0,1.05.37,6.16,6.16,0,0,0,1.12.11,3.41,3.41,0,0,0,2.48-.81,2.75,2.75,0,0,0,.83-2,3.21,3.21,0,0,0-.16-1,2.88,2.88,0,0,0-.51-.87,5.3,5.3,0,0,0-.86-.84c-.35-.29-.77-.61-1.26-1l-1-.75a10.28,10.28,0,0,1-2.47-2.4,4,4,0,0,1-.7-2.17,3.83,3.83,0,0,1,.36-1.68,3.45,3.45,0,0,1,1-1.27,4.72,4.72,0,0,1,1.55-.79,6.78,6.78,0,0,1,2-.28,10.43,10.43,0,0,1,1.27.08,10,10,0,0,1,1,.17,4.12,4.12,0,0,0,.49.09h.29c.15,0,.23.05.23.16s0,.25,0,.61-.05.91-.05,1.64q0,.48-.18.48c-.08,0-.13,0-.15-.07s0-.12,0-.21a3.69,3.69,0,0,0-.12-.54,3.62,3.62,0,0,0-.2-.51,1.41,1.41,0,0,0-.23-.28,2.44,2.44,0,0,0-.52-.35,3.33,3.33,0,0,0-.85-.3,5.64,5.64,0,0,0-1.27-.12,3.62,3.62,0,0,0-2.07.58,2,2,0,0,0-.86,1.73,2.73,2.73,0,0,0,.14.92,2.67,2.67,0,0,0,.47.85,7.24,7.24,0,0,0,.88.85c.36.29.82.62,1.37,1l.63.42a15.36,15.36,0,0,1,1.69,1.33A7.83,7.83,0,0,1,106,48.37a4.25,4.25,0,0,1,.61,1.25,4.53,4.53,0,0,1,.19,1.32,4.58,4.58,0,0,1-.44,1.91,4.25,4.25,0,0,1-1.62,1.73,4.45,4.45,0,0,1-1.65.61,13.38,13.38,0,0,1-1.86.14A12.35,12.35,0,0,1,99.61,55.21Z"/><path class="cls-1" d="M113.06,45.09V41.83c0-.33,0-.6,0-.79s0-.37,0-.54a2,2,0,0,0-.2-.83.88.88,0,0,0-.7-.35,2.27,2.27,0,0,0-.36,0h-.39c-.12,0-.18-.06-.18-.17s.12-.18.35-.18h1.61l.64,0h5.59l.6-.06.4-.07.15-.06a.42.42,0,0,1,.15,0c.07,0,.1.07.1.2a1.28,1.28,0,0,1-.06.34,4.17,4.17,0,0,0-.11.67s0,.13,0,.26l0,.41c0,.15,0,.3,0,.43a1.55,1.55,0,0,1,0,.3.44.44,0,0,1-.08.15.14.14,0,0,1-.12.08c-.12,0-.18-.09-.18-.28a2.38,2.38,0,0,0,0-.34,1.89,1.89,0,0,0-.1-.41,1.09,1.09,0,0,0-.14-.23.9.9,0,0,0-.26-.17,2.69,2.69,0,0,0-.45-.14,6.84,6.84,0,0,0-.73-.11,5.18,5.18,0,0,0-.63,0l-1,0-1,0h-.55c-.09,0-.13.08-.13.23v5.8c0,.15,0,.22.13.22h2.94c.36,0,.61,0,.75,0l.65-.09a.7.7,0,0,0,.43-.21q.27-.27.33-.27c.08,0,.12,0,.12.17a2.24,2.24,0,0,1-.06.38c0,.18-.08.45-.12.8a7.48,7.48,0,0,0-.07.79c0,.31,0,.51,0,.59a1.15,1.15,0,0,1,0,.26c0,.1-.08.14-.17.14s-.15-.07-.15-.2,0-.21,0-.33a1.42,1.42,0,0,0-.09-.37.72.72,0,0,0-.26-.4,1.66,1.66,0,0,0-.87-.25c-.15,0-.39,0-.73-.05l-1,0h-1.59c-.1,0-.15,0-.15.14V52.5a3.63,3.63,0,0,0,.13.86,1,1,0,0,0,.39.53,1.75,1.75,0,0,0,.79.25,11.32,11.32,0,0,0,1.33.07l1.1,0a3.34,3.34,0,0,0,1.11-.2,1.74,1.74,0,0,0,.66-.52,2.08,2.08,0,0,0,.34-1c0-.22.13-.33.23-.33a.11.11,0,0,1,.12.1.85.85,0,0,1,0,.23s0,.14,0,.31,0,.38-.07.6-.07.45-.1.66-.07.37-.1.49a1,1,0,0,1-.14.31.46.46,0,0,1-.21.16,1,1,0,0,1-.34.07h-.54c-.84,0-1.58,0-2.21,0l-1.63,0c-.47,0-.86-.05-1.16-.05h-1l-.63,0-.66,0h-.62c-.23,0-.35-.06-.35-.18a.15.15,0,0,1,.17-.17,2.09,2.09,0,0,0,.34,0l.34-.06a.5.5,0,0,0,.42-.35c0-.21.11-.46.16-.78a14,14,0,0,0,.11-1.86c0-.81,0-1.73,0-2.76Z"/><path class="cls-1" d="M127.83,52.15c0,.43,0,.79.07,1.09a3.22,3.22,0,0,0,.15.73,1,1,0,0,0,.25.42.72.72,0,0,0,.38.19,3.19,3.19,0,0,0,.63.1l.47,0c.12,0,.18.06.18.17s-.14.18-.4.18c-.64,0-1.16,0-1.57,0l-.77,0-.76,0c-.41,0-.87,0-1.37,0-.23,0-.35-.06-.35-.18a.15.15,0,0,1,.17-.17l.39,0a2.28,2.28,0,0,0,.52-.1.57.57,0,0,0,.32-.2.94.94,0,0,0,.19-.45,6.23,6.23,0,0,0,.09-.79c0-.33,0-.73,0-1.22V39.7a2.66,2.66,0,0,1,.09-.87c.06-.14.13-.21.22-.21a.67.67,0,0,1,.44.24l.41.41.75.79,1.58,1.67L132.09,44c.81.83,1.63,1.69,2.49,2.56.55.57,1.1,1.14,1.64,1.72s1.06,1.11,1.53,1.62.9.94,1.26,1.33l.79.83-.23-10.7a5,5,0,0,0-.17-1.45.8.8,0,0,0-.66-.53,6.17,6.17,0,0,0-.62-.08l-.46,0a.14.14,0,0,1-.15-.08.6.6,0,0,1,0-.12c0-.1.14-.15.43-.15l1.43,0,.87,0,.71,0,1.18,0c.27,0,.4,0,.4.15a.19.19,0,0,1-.06.12.24.24,0,0,1-.19.08h-.2a1.15,1.15,0,0,0-.33,0,.89.89,0,0,0-.43.18.7.7,0,0,0-.22.34,2.17,2.17,0,0,0-.1.53q0,.33,0,.81l0,12.5c0,.35,0,.63,0,.82s0,.36,0,.47a.37.37,0,0,1,0,.2.18.18,0,0,1-.09,0,.49.49,0,0,1-.18-.05,2.24,2.24,0,0,1-.29-.19c-.12-.09-.28-.22-.47-.39s-.44-.39-.75-.68l-.66-.64c-.39-.37-.87-.84-1.42-1.4L135.15,50l-1.85-1.9-1.87-2c-.61-.65-1.18-1.24-1.7-1.78L128.39,43l-.82-.88Zm6.23-15.38-.81-.39c-.24-.1-.48-.22-.74-.36a1.93,1.93,0,0,0-1-.21,1.41,1.41,0,0,0-.59.11,1.61,1.61,0,0,0-.45.26,1.41,1.41,0,0,0-.3.3c-.08.1-.14.18-.19.23s-.25.22-.35.22-.15,0-.15-.14a.27.27,0,0,1,.05-.18l.12-.2a6.2,6.2,0,0,1,.37-.5,5,5,0,0,1,.54-.59,3.41,3.41,0,0,1,.62-.49,1.18,1.18,0,0,1,.63-.21,2.36,2.36,0,0,1,1,.26c.36.16.73.34,1.12.53.18.08.42.17.71.27a2.47,2.47,0,0,0,.75.15,1.72,1.72,0,0,0,.62-.1,2.06,2.06,0,0,0,.47-.23,2.89,2.89,0,0,0,.3-.23l.14-.17q.17-.27.3-.27c.11,0,.17.05.17.15a.72.72,0,0,1-.1.32,2.45,2.45,0,0,1-.3.44,5.22,5.22,0,0,1-1.15,1.08,1.1,1.1,0,0,1-.63.21A2.57,2.57,0,0,1,134.06,36.77Z"/><path class="cls-1" d="M151.17,39.34a3.55,3.55,0,0,1,.3-.67.28.28,0,0,1,.23-.15.29.29,0,0,1,.26.21c.06.14.15.33.26.56s.22.5.44,1.06l.82,2c.32.78.66,1.64,1,2.57l1.12,2.74c.36.91.71,1.77,1,2.58s.61,1.48.84,2a8.9,8.9,0,0,0,.56,1.15,4.27,4.27,0,0,0,.51.68,1.68,1.68,0,0,0,.81.5,2.29,2.29,0,0,0,.48.1l.4,0a.58.58,0,0,1,.19,0,.15.15,0,0,1,.09.14c0,.07-.05.12-.15.14a1.25,1.25,0,0,1-.35,0h-2.35l-1.14,0L156,55c-.15,0-.22,0-.22-.11s0-.08,0-.09l.12-.06a.81.81,0,0,0,.21-.18c.08-.08.07-.21,0-.4l-2-4.89a.23.23,0,0,0-.21-.13h-5.09a.25.25,0,0,0-.23.18l-1.25,3.41a4.16,4.16,0,0,0-.33,1.43.46.46,0,0,0,.24.45,1,1,0,0,0,.52.13h.2c.15,0,.22.06.22.17s-.11.18-.32.18h-.51l-.6,0-.54,0-.34,0-.31,0-.55,0-.68,0h-.69c-.29,0-.43-.06-.43-.18s.07-.17.2-.17l.33,0,.33,0a1.63,1.63,0,0,0,1.14-.63A5.88,5.88,0,0,0,146,52.7Zm2.46,8.89c.07,0,.09,0,.07-.15l-2.18-5.85c-.13-.32-.26-.32-.38,0l-2,5.85c0,.1,0,.15.07.15Z"/><path class="cls-1" d="M163.47,45.09V41.83c0-.33,0-.6,0-.79s0-.37,0-.54a2.33,2.33,0,0,0-.2-.83.9.9,0,0,0-.71-.35,2.27,2.27,0,0,0-.36,0h-.39a.15.15,0,0,1-.17-.17c0-.12.11-.18.35-.18h1.6l.64,0h.71l.69,0h3.82a14.89,14.89,0,0,1,2.34.22,9.88,9.88,0,0,1,2.41.71,7,7,0,0,1,2.17,1.49,8.24,8.24,0,0,1,1.49,2.18,7.12,7.12,0,0,1,.67,3.24,8.79,8.79,0,0,1-.2,1.9,9.55,9.55,0,0,1-.53,1.64,7.82,7.82,0,0,1-.76,1.37,9.33,9.33,0,0,1-.9,1.09,7.79,7.79,0,0,1-.91.81,7.38,7.38,0,0,1-1.38.79,10.23,10.23,0,0,1-1.91.61,11,11,0,0,1-2.5.26c-.48,0-1,0-1.54-.05l-1.55-.08L165.08,55l-.58,0-.3,0h-.61l-.7,0h-.63c-.23,0-.35-.06-.35-.18s.06-.17.18-.17l.34,0a1.86,1.86,0,0,0,.34-.07.52.52,0,0,0,.41-.37,5.43,5.43,0,0,0,.16-.76,13.67,13.67,0,0,0,.12-1.86c0-.81,0-1.73,0-2.76Zm2,2.31v3c0,.4,0,.74,0,1s0,.48,0,.58c0,.26,0,.56.08.88a1.52,1.52,0,0,0,.17.65,1.23,1.23,0,0,0,.33.3,2.31,2.31,0,0,0,.64.27,5.45,5.45,0,0,0,1.07.21,14.8,14.8,0,0,0,1.63.07,8.05,8.05,0,0,0,2.85-.49,6.71,6.71,0,0,0,2.32-1.44,4.38,4.38,0,0,0,.75-1,5.72,5.72,0,0,0,.54-1.23,9.88,9.88,0,0,0,.33-1.4,10.61,10.61,0,0,0,.11-1.47,8.2,8.2,0,0,0-.2-1.85,8.78,8.78,0,0,0-.5-1.5,5.81,5.81,0,0,0-.68-1.16c-.25-.32-.49-.6-.7-.84a7.35,7.35,0,0,0-1.62-1.25,7.21,7.21,0,0,0-1.75-.73,9.56,9.56,0,0,0-1.85-.33c-.64-.05-1.29-.07-1.94-.07a7.14,7.14,0,0,0-.75,0,3.1,3.1,0,0,0-.58.11.4.4,0,0,0-.27.42Z"/><path class="cls-1" d="M181.78,44.2a8.35,8.35,0,0,1,4.3-4.77,8.91,8.91,0,0,1,3.94-.81,10.56,10.56,0,0,1,3.47.55,8.14,8.14,0,0,1,2.77,1.59,7.38,7.38,0,0,1,1.83,2.53,7.92,7.92,0,0,1,.67,3.33,8.91,8.91,0,0,1-.64,3.38,8.53,8.53,0,0,1-1.79,2.77,8.44,8.44,0,0,1-2.8,1.87,9.32,9.32,0,0,1-3.63.69,9.09,9.09,0,0,1-3.89-.76,7.81,7.81,0,0,1-4.24-4.69,9,9,0,0,1-.51-2.93A8.46,8.46,0,0,1,181.78,44.2Zm2.3,5.52a7.57,7.57,0,0,0,1.46,2.55,6.36,6.36,0,0,0,2.21,1.62,6.71,6.71,0,0,0,2.78.56,7,7,0,0,0,1.77-.26,5.06,5.06,0,0,0,2-1,6.22,6.22,0,0,0,1.59-2.2,9,9,0,0,0,.65-3.72,9.78,9.78,0,0,0-.54-3.38,7,7,0,0,0-1.45-2.44,6.25,6.25,0,0,0-2.11-1.49,6.49,6.49,0,0,0-2.5-.5,7,7,0,0,0-2.55.44,5.35,5.35,0,0,0-2,1.31A6,6,0,0,0,184,43.34a9,9,0,0,0-.47,3A9.77,9.77,0,0,0,184.08,49.72Z"/><path class="cls-1" d="M204.06,45.09V41.83c0-.33,0-.6,0-.79s0-.37,0-.54a2,2,0,0,0-.2-.83.88.88,0,0,0-.7-.35,2.27,2.27,0,0,0-.36,0h-.39c-.12,0-.18-.06-.18-.17s.12-.18.36-.18h1.63l.65,0h.75l.78,0h1.56a14.3,14.3,0,0,1,2.14.16,4.65,4.65,0,0,1,2,.77,3.78,3.78,0,0,1,.47.41,3.85,3.85,0,0,1,.5.64,4.08,4.08,0,0,1,.4.84,3,3,0,0,1,.17,1,5.24,5.24,0,0,1-.6,2.37,8.34,8.34,0,0,1-2.12,2.5c.91,1.14,1.74,2.17,2.51,3.11s1.48,1.74,2.11,2.41a5.64,5.64,0,0,0,1.46,1.17,3.2,3.2,0,0,0,1,.31,4.93,4.93,0,0,0,.5.06l.28,0c.14,0,.2.06.2.17a.14.14,0,0,1-.11.14,1.34,1.34,0,0,1-.42,0H217a8.43,8.43,0,0,1-1.44-.1,3.6,3.6,0,0,1-.92-.33,4.83,4.83,0,0,1-1.39-1.15q-.66-.78-1.62-2c-.23-.29-.47-.59-.7-.9l-.67-.88c-.21-.27-.4-.53-.57-.76l-.44-.58a.44.44,0,0,0-.3-.12l-2.82,0c-.1,0-.15.06-.15.17v.5c0,1,0,2,0,2.75s0,1.41.08,1.85a2,2,0,0,0,.22.76.84.84,0,0,0,.66.37,3.6,3.6,0,0,0,.53.07l.45,0c.12,0,.18.06.18.17s-.12.18-.35.18h-.92L206,55l-.66,0L205,55l-.85,0-.71,0h-.63c-.23,0-.35-.06-.35-.18s.06-.17.18-.17l.33,0a1.57,1.57,0,0,0,.34-.07.52.52,0,0,0,.42-.37,5.43,5.43,0,0,0,.16-.76,14,14,0,0,0,.11-1.86c0-.81,0-1.73,0-2.76ZM206,46.9a.32.32,0,0,0,.15.28,1.21,1.21,0,0,0,.38.12c.17,0,.37.07.59.1s.47.06.72.08l.75,0a6,6,0,0,0,.83,0,1.7,1.7,0,0,0,.82-.33,2.59,2.59,0,0,0,1-1.2,5,5,0,0,0,.38-2.06,4.37,4.37,0,0,0-1-3.1,3.63,3.63,0,0,0-2.8-1.09c-.33,0-.65,0-.95,0a5.67,5.67,0,0,0-.63.08.31.31,0,0,0-.18.26Z"/><path class="cls-1" d="M229.66,43.36V39.5c0-.39,0-.69,0-.92s0-.44,0-.64a2.24,2.24,0,0,0-.25-1,1.18,1.18,0,0,0-.83-.45,1.17,1.17,0,0,0-.42-.06l-.43,0c-.14,0-.2,0-.2-.15s.13-.2.4-.2l.9,0,.89,0,.7,0h.78l.81,0,1,0,1.13,0,2.2,0a14.66,14.66,0,0,1,2.65.26,11.6,11.6,0,0,1,2.73.84,8,8,0,0,1,2.49,1.74,9.55,9.55,0,0,1,.91,1.13,7.13,7.13,0,0,1,.78,1.42,8.75,8.75,0,0,1,.54,1.75,10.34,10.34,0,0,1,.2,2.08,10.48,10.48,0,0,1-.83,4.18,9.56,9.56,0,0,1-.86,1.62,10.61,10.61,0,0,1-1,1.28,10.41,10.41,0,0,1-1,.93,8.46,8.46,0,0,1-1.57.94,11.6,11.6,0,0,1-2.16.73,12.61,12.61,0,0,1-2.83.28c-.54,0-1.12,0-1.75,0l-1.74-.11c-.56,0-1-.06-1.41-.1l-.68-.05h-.32l-.68,0-.78,0-.68,0c-.26,0-.4-.07-.4-.2s.07-.15.2-.15l.38,0a2,2,0,0,0,.37-.07.65.65,0,0,0,.52-.46,4.66,4.66,0,0,0,.21-.92,19.93,19.93,0,0,0,.12-2.23c0-.94,0-2,0-3.22Zm2.11,2.71V48c0,.6,0,1.15,0,1.63s0,.9,0,1.23,0,.56,0,.68,0,.32,0,.51,0,.39,0,.57a3.49,3.49,0,0,0,.08.5.88.88,0,0,0,.12.33,2,2,0,0,0,.39.35,2.93,2.93,0,0,0,.76.32,6.31,6.31,0,0,0,1.25.24,16.34,16.34,0,0,0,1.87.09,9,9,0,0,0,3.3-.6,7.65,7.65,0,0,0,2.67-1.73,5.22,5.22,0,0,0,.86-1.16,8.93,8.93,0,0,0,.64-1.47,10.61,10.61,0,0,0,.39-1.64,12.47,12.47,0,0,0,.12-1.73,9.84,9.84,0,0,0-.22-2.19,9.42,9.42,0,0,0-.59-1.77,9.84,9.84,0,0,0-.79-1.38,12.06,12.06,0,0,0-.81-1,7.92,7.92,0,0,0-1.85-1.49,9.27,9.27,0,0,0-2-.87A10.14,10.14,0,0,0,236,37c-.73-.06-1.47-.1-2.22-.1l-.44,0-.49,0-.44.07-.27.06a.49.49,0,0,0-.3.5c0,.22,0,.53,0,.93s0,.85,0,1.36v6.17Z"/><path class="cls-1" d="M254.11,48.86c0,1,0,2,0,2.76s0,1.42.09,1.86a2.6,2.6,0,0,0,.17.76c.08.2.29.32.63.37a4.34,4.34,0,0,0,.55.07l.45,0c.12,0,.18.06.18.17s-.12.18-.35.18h-.93L254,55l-.66,0-.29,0-.3,0-.59,0-.7,0h-.6c-.23,0-.35-.06-.35-.18s.06-.17.18-.17l.34,0a1.86,1.86,0,0,0,.34-.07.55.55,0,0,0,.42-.37,3.08,3.08,0,0,0,.15-.76c.05-.44.09-1.06.1-1.86s0-1.73,0-2.76v-7c0-.33,0-.6,0-.79s0-.37,0-.54a2.27,2.27,0,0,0-.2-.82.74.74,0,0,0-.5-.34l-.38-.06h-.3c-.12,0-.18-.06-.18-.17s.12-.18.35-.18h1.33l.61,0h.59l.59,0h1.33c.23,0,.35.06.35.18s-.06.17-.18.17h-.25a1,1,0,0,0-.3,0,.87.87,0,0,0-.59.35,2.41,2.41,0,0,0-.19.83c0,.17,0,.35,0,.54s0,.46,0,.79v7Z"/><path class="cls-1" d="M272.25,49.61c0-.43,0-.78,0-1a2.19,2.19,0,0,0-.12-.62.59.59,0,0,0-.28-.32,2.33,2.33,0,0,0-.53-.18l-.36,0h-.39c-.12,0-.18,0-.18-.17s.12-.18.35-.18h1.63l.66,0h.6l.58,0h1.3c.24,0,.35.06.35.18a.15.15,0,0,1-.17.17h-.25a1.73,1.73,0,0,0-.31.05.85.85,0,0,0-.61.34,2,2,0,0,0-.21.84c0,.34,0,.68,0,1v3.57a4.73,4.73,0,0,1-.05.89.42.42,0,0,1-.25.26,5.76,5.76,0,0,1-1.14.45,10.62,10.62,0,0,1-1.24.29c-.42.07-.83.13-1.23.16s-.77,0-1.08,0-.92,0-1.5-.06a11,11,0,0,1-1.84-.3,12.19,12.19,0,0,1-2-.69A8.31,8.31,0,0,1,262,53.05a6.25,6.25,0,0,1-1-1,7.51,7.51,0,0,1-.84-1.41,8.63,8.63,0,0,1-.59-1.69,8.14,8.14,0,0,1-.23-1.92,9,9,0,0,1,.3-2.38,8.48,8.48,0,0,1,.81-2,6.7,6.7,0,0,1,1.18-1.54A8.38,8.38,0,0,1,263,40a8.29,8.29,0,0,1,3-1.13,19.65,19.65,0,0,1,2.82-.22c.36,0,.71,0,1.07,0s.7.06,1,.11l.81.12.5.09.86.15a6.19,6.19,0,0,0,.93.07c.18,0,.27.07.27.2s0,.19,0,.31a4.37,4.37,0,0,0,0,.51c0,.22,0,.51,0,.87s0,.79,0,1.33a.61.61,0,0,1-.07.36.21.21,0,0,1-.19.09c-.09,0-.14-.11-.14-.33s-.06-.34-.13-.61a2.26,2.26,0,0,0-.38-.8A3.83,3.83,0,0,0,271.65,40a9,9,0,0,0-3.41-.53,12.61,12.61,0,0,0-2.19.21,5.88,5.88,0,0,0-2.43,1.17A5.29,5.29,0,0,0,262.05,43a8,8,0,0,0-.61,3.26,8.17,8.17,0,0,0,.25,2.1A9.09,9.09,0,0,0,262.3,50a7.22,7.22,0,0,0,.77,1.28,5.57,5.57,0,0,0,.7.8,8.12,8.12,0,0,0,2.72,1.73,8.48,8.48,0,0,0,2.93.51,12.17,12.17,0,0,0,1.27-.08A2.7,2.7,0,0,0,271.8,54a1.88,1.88,0,0,0,.33-.24.54.54,0,0,0,.12-.41Z"/><path class="cls-1" d="M282.92,48.86c0,1,0,2,0,2.76s0,1.42.09,1.86a2.29,2.29,0,0,0,.18.76c.08.2.29.32.62.37a4.5,4.5,0,0,0,.56.07l.45,0a.15.15,0,0,1,.17.17c0,.12-.11.18-.35.18h-.93l-.88,0-.66,0-.29,0-.3,0L281,55l-.69,0h-.6c-.24,0-.35-.06-.35-.18a.15.15,0,0,1,.17-.17l.34,0a1.57,1.57,0,0,0,.34-.07.55.55,0,0,0,.43-.37,4.41,4.41,0,0,0,.15-.76c0-.44.08-1.06.1-1.86s0-1.73,0-2.76v-7c0-.33,0-.6,0-.79s0-.37,0-.54a2.08,2.08,0,0,0-.2-.82.74.74,0,0,0-.5-.34l-.38-.06h-.3a.15.15,0,0,1-.17-.17c0-.12.11-.18.35-.18H281l.6,0h.59l.59,0h1.33c.24,0,.35.06.35.18a.15.15,0,0,1-.17.17H284a1.13,1.13,0,0,0-.3,0,.89.89,0,0,0-.59.35,2.23,2.23,0,0,0-.18.83c0,.17,0,.35,0,.54s0,.46,0,.79v7Z"/><path class="cls-1" d="M295.5,48.86c0,1,0,2,0,2.76s0,1.42.09,1.86a2,2,0,0,0,.2.76.78.78,0,0,0,.65.37,3.57,3.57,0,0,0,.54.07l.46,0c.12,0,.18.06.18.17s-.12.18-.35.18h-.92l-.85,0-.65,0-.32,0-.31,0-.63,0-.73,0h-.61c-.24,0-.35-.06-.35-.18s0-.15.17-.15a1.94,1.94,0,0,0,.33,0,1.5,1.5,0,0,0,.32-.08.62.62,0,0,0,.48-.37,2.9,2.9,0,0,0,.18-.78q.08-.66.09-1.86c0-.81,0-1.73,0-2.76v-9L290.3,40a6.83,6.83,0,0,0-1.52.16,1.27,1.27,0,0,0-.72.51,2.92,2.92,0,0,0-.25.42,2,2,0,0,1-.1.26.22.22,0,0,1-.22.2.17.17,0,0,1-.1,0s-.05-.07-.05-.14a2.79,2.79,0,0,1,.07-.43c0-.23.11-.48.17-.74s.11-.5.16-.73a2.51,2.51,0,0,0,.07-.41c0-.07.07-.15.12-.25s.08-.15.11-.15a.79.79,0,0,1,.33.1,2.5,2.5,0,0,0,.65.15c.32,0,.65.06,1,.07l.73,0h8.34c.36,0,.67,0,.92,0a5.58,5.58,0,0,0,.66-.07l.4-.08.22,0c.07,0,.1.08.1.25s0,.37,0,.63,0,.49,0,.74,0,.46,0,.66,0,.34,0,.4-.07.28-.2.28a.14.14,0,0,1-.12-.08,1.5,1.5,0,0,1-.06-.3l0-.23a1.2,1.2,0,0,0-.15-.45,1.28,1.28,0,0,0-.42-.36,2.52,2.52,0,0,0-.8-.25,10,10,0,0,0-1.29-.11l-2.76-.05Z"/><path class="cls-1" d="M308.32,39.34a5.73,5.73,0,0,1,.3-.67.29.29,0,0,1,.23-.15c.12,0,.2.07.26.21s.15.33.27.56l.44,1.06.81,2c.32.78.67,1.64,1,2.57l1.12,2.74c.37.91.72,1.77,1,2.58s.61,1.48.84,2a7.67,7.67,0,0,0,.57,1.15,4.29,4.29,0,0,0,.5.68,1.76,1.76,0,0,0,.44.35,1.66,1.66,0,0,0,.38.15,2.08,2.08,0,0,0,.47.1l.41,0a.57.57,0,0,1,.18,0,.15.15,0,0,1,.09.14c0,.07,0,.12-.15.14a1.25,1.25,0,0,1-.35,0h-2.35l-1.14,0-.55,0c-.15,0-.23,0-.23-.11s0-.08,0-.09l.11-.06a.83.83,0,0,0,.22-.18c.07-.08.07-.21,0-.4l-2-4.89a.22.22,0,0,0-.2-.13H306a.24.24,0,0,0-.23.18l-1.26,3.41a4.35,4.35,0,0,0-.32,1.43.46.46,0,0,0,.24.45,1,1,0,0,0,.51.13h.2c.15,0,.23.06.23.17s-.11.18-.33.18h-.5l-.6,0-.54,0-.34,0-.32,0-.55,0-.68,0h-.69q-.42,0-.42-.18c0-.11.06-.17.2-.17l.32,0,.33,0a1.63,1.63,0,0,0,1.14-.63,6.3,6.3,0,0,0,.72-1.33Zm2.46,8.89c.07,0,.1,0,.08-.15l-2.19-5.85c-.13-.32-.26-.32-.37,0l-2.06,5.85c0,.1,0,.15.07.15Z"/><path class="cls-1" d="M322.63,48.91c0,.79,0,1.46,0,2a13.48,13.48,0,0,0,.06,1.4,5,5,0,0,0,.14.9.91.91,0,0,0,.24.47,1.65,1.65,0,0,0,1,.39,15.1,15.1,0,0,0,3.55,0,1.64,1.64,0,0,0,1.09-.57A2.09,2.09,0,0,0,329,53a3.11,3.11,0,0,0,.19-.64c0-.19.11-.28.22-.28s.16.11.16.33c0,.05,0,.16,0,.34s0,.37-.07.57-.07.43-.11.66a3.18,3.18,0,0,1-.12.56,1.3,1.3,0,0,1-.11.32.44.44,0,0,1-.21.16,1.52,1.52,0,0,1-.38.07,6.37,6.37,0,0,1-.71,0c-1.54,0-2.82,0-3.84-.08l-1.33,0-1.08,0h-.32l-.58,0-.68,0h-.6c-.23,0-.35-.06-.35-.18a.15.15,0,0,1,.17-.17l.34,0a1.57,1.57,0,0,0,.34-.07.52.52,0,0,0,.42-.37,7.4,7.4,0,0,0,.16-.76,14,14,0,0,0,.11-1.86c0-.81,0-1.73,0-2.76v-7c0-.33,0-.6,0-.79s0-.37,0-.54a2.13,2.13,0,0,0-.2-.83.88.88,0,0,0-.7-.35,2.43,2.43,0,0,0-.36,0h-.39c-.12,0-.18-.06-.18-.17s.12-.18.35-.18h1.58l.63,0h.63l.68,0H324c.23,0,.35.06.35.18s-.06.14-.18.14l-.32,0-.4,0a.85.85,0,0,0-.64.37,2.12,2.12,0,0,0-.19.84c0,.17,0,.35,0,.54s0,.46,0,.79v7.08Z"/><path class="cls-1" d="M36.75,62.08s0,0,0,0h-.05l-.1.06-.1.06-.21.12-.23.15-.19.12a.05.05,0,0,0,0,0s0,0,0,0l.08,0,.17-.06a1,1,0,0,1,.21-.07l.22-.06.21,0h.19s0,0,0,0l-.07-.14Z"/><path class="cls-1" d="M8.58,34.78h10l5.68,9.73h0l5.68-9.73h10V54.05l8.58,5.22V3.34L41.4,0,24.25,29.79,7.1,0,0,3.34V59.27l8.58-5.22Zm31.34-17.1V33.51H30.68Zm-31.34,0,9.24,15.83H8.58Z"/></g></g></svg>