<svg xmlns="http://www.w3.org/2000/svg" viewBox="0 0 251.09 324.62"><defs><style>.cls-1{fill:#00155c;}</style></defs><title>Asset 4</title><g id="Layer_2" data-name="Layer 2"><g id="Capa_1" data-name="Capa 1"><path class="cls-1" d="M20.69,292.83a5.38,5.38,0,0,0,.29,1.45,2.48,2.48,0,0,0,.37.65,1.23,1.23,0,0,0,.62.42,4.66,4.66,0,0,0,.93.19l.61,0c.13,0,.19,0,.19.12s-.05.13-.14.16a1,1,0,0,1-.36.05h-.71l-1.14,0-1.2,0-.91-.05a2.89,2.89,0,0,1-.54-.1c-.08,0-.13-.07-.13-.14s.06-.15.17-.16.1-.11.12-.28a3,3,0,0,0,0-.58L17.7,282.25h-.07l-5.82,12.33c-.25.53-.41.87-.5,1s-.17.23-.28.23-.17-.07-.26-.22-.25-.44-.48-.87c-.15-.28-.38-.72-.67-1.31s-.59-1.19-.89-1.79-.57-1.14-.81-1.61l-.4-.79-.29-.6c-.15-.33-.34-.73-.56-1.19s-.46-1-.7-1.51l-.7-1.52c-.23-.47-.41-.89-.57-1.24l-.31-.7h-.1l-1,11c0,.19,0,.39,0,.6v.62a.71.71,0,0,0,.18.47.72.72,0,0,0,.44.26,4.51,4.51,0,0,0,.54.1l.36,0c.13,0,.19,0,.19.12s-.14.21-.43.21H3.91l-.67,0-.55,0h-.6l-.54,0-.6,0H.4c-.27,0-.4-.07-.4-.21s.08-.12.24-.12H.53l.42-.06a.87.87,0,0,0,.73-.7,9,9,0,0,0,.22-1.27l1.7-15.47c0-.29.12-.42.27-.42s.24.11.35.35l7.26,14.92,7-14.9c.12-.25.24-.37.36-.37s.24.21.29.63Z"/><path class="cls-1" d="M31.1,281a5.42,5.42,0,0,1,.28-.64.27.27,0,0,1,.22-.14c.11,0,.19.07.25.2s.14.31.25.53l.41,1c.22.52.47,1.15.77,1.88l1,2.43c.35.87.7,1.74,1,2.59l1,2.43c.31.77.57,1.41.79,1.91a7.35,7.35,0,0,0,.54,1.09,3.79,3.79,0,0,0,.47.65,1.88,1.88,0,0,0,.42.33,2,2,0,0,0,.35.14,2.84,2.84,0,0,0,.45.1l.38,0a.52.52,0,0,1,.18,0,.14.14,0,0,1,.08.13c0,.07,0,.11-.14.13a1.06,1.06,0,0,1-.33,0H37.28l-1.08,0-.52,0c-.14,0-.21-.05-.21-.11s0-.07,0-.08l.11-.06a.72.72,0,0,0,.2-.17c.07-.07.07-.2,0-.37l-1.88-4.63a.21.21,0,0,0-.19-.12H28.92a.23.23,0,0,0-.22.17l-1.18,3.22a3.87,3.87,0,0,0-.31,1.36.42.42,0,0,0,.23.42,1,1,0,0,0,.48.12h.19c.14,0,.22.06.22.16s-.11.17-.31.17h-.48l-.57,0-.51,0h-.61l-.53,0-.64,0H24c-.27,0-.4-.05-.4-.17s.06-.16.19-.16h.31a1.82,1.82,0,0,0,.3,0,1.5,1.5,0,0,0,1.08-.59,5.89,5.89,0,0,0,.68-1.26Zm2.33,8.4c.06,0,.08-.05.07-.14l-2.07-5.53c-.12-.3-.24-.3-.35,0l-1.95,5.53c0,.09,0,.14.07.14Z"/><path class="cls-1" d="M42.72,286.47v-3.08c0-.32,0-.57,0-.75s0-.35,0-.51a2.1,2.1,0,0,0-.19-.78c-.1-.18-.32-.28-.67-.33a2.11,2.11,0,0,0-.34,0h-.37a.15.15,0,0,1-.17-.17c0-.11.12-.17.34-.17l.77,0H45.7l.65,0a14.1,14.1,0,0,1,2,.16,4.44,4.44,0,0,1,1.86.72,4.58,4.58,0,0,1,.44.39,3.41,3.41,0,0,1,.48.61,4.45,4.45,0,0,1,.38.79,3,3,0,0,1,.15,1,4.92,4.92,0,0,1-.56,2.24,8,8,0,0,1-2,2.36q1.27,1.61,2.37,2.94c.73.89,1.39,1.64,2,2.28a5.39,5.39,0,0,0,1.38,1.1,3.4,3.4,0,0,0,1,.3l.47.06h.26c.13,0,.19.06.19.16a.12.12,0,0,1-.1.13,1.17,1.17,0,0,1-.39,0H54.94a7.66,7.66,0,0,1-1.36-.09,3.6,3.6,0,0,1-.87-.31,4.67,4.67,0,0,1-1.32-1.09c-.42-.49-.92-1.12-1.52-1.88-.23-.27-.45-.55-.67-.84l-.63-.83-.54-.72-.42-.55a.38.38,0,0,0-.28-.12l-2.66,0c-.1,0-.14.06-.14.17v.47c0,1,0,1.85,0,2.6s0,1.33.08,1.75a1.87,1.87,0,0,0,.2.72.8.8,0,0,0,.63.34c.15,0,.31.06.5.08l.43,0a.14.14,0,0,1,.16.16c0,.12-.11.17-.33.17h-.86l-.81,0-.62,0h-.27l-.8,0-.67,0h-.59c-.23,0-.34-.05-.34-.17a.15.15,0,0,1,.17-.16l.32,0,.32-.08a.48.48,0,0,0,.39-.34,5,5,0,0,0,.16-.72,14.67,14.67,0,0,0,.1-1.76c0-.76,0-1.63,0-2.61Zm1.81,1.71a.28.28,0,0,0,.14.26,1.07,1.07,0,0,0,.36.12l.55.09c.22,0,.44.06.68.08l.71,0a5.27,5.27,0,0,0,.78-.05,1.7,1.7,0,0,0,.79-.31,2.57,2.57,0,0,0,.9-1.13,4.89,4.89,0,0,0,.35-1.95,4.14,4.14,0,0,0-1-2.93,3.42,3.42,0,0,0-2.64-1q-.48,0-.9,0a3.2,3.2,0,0,0-.6.09.26.26,0,0,0-.16.23Z"/><path class="cls-1" d="M62,295.61A8.45,8.45,0,0,1,59.16,294a7.11,7.11,0,0,1-1.25-1.41,7.35,7.35,0,0,1-.79-1.52,7.19,7.19,0,0,1-.39-1.55,11.22,11.22,0,0,1-.1-1.5,7.68,7.68,0,0,1,.1-1.17,8.19,8.19,0,0,1,.37-1.41,7.52,7.52,0,0,1,.72-1.49A8.29,8.29,0,0,1,59,282.51a7.75,7.75,0,0,1,1.08-.84,8.08,8.08,0,0,1,1.38-.69,8.88,8.88,0,0,1,1.73-.46,12.92,12.92,0,0,1,2.17-.17c.41,0,.89,0,1.45.06s1.08.1,1.59.18l1.1.2a9,9,0,0,0,1,.11c.18,0,.26.07.26.21a2.71,2.71,0,0,1,0,.36c0,.16,0,.42-.07.78,0,.17,0,.36,0,.57s0,.41,0,.62,0,.36,0,.53,0,.28,0,.34c0,.29-.09.43-.23.43s-.17-.14-.17-.43a2.85,2.85,0,0,0-.24-1.14,2.3,2.3,0,0,0-.64-.87,4.36,4.36,0,0,0-1.62-.8,8.88,8.88,0,0,0-2.48-.32,11.41,11.41,0,0,0-1.76.12,7.62,7.62,0,0,0-1.31.32,4.69,4.69,0,0,0-1,.45A5.14,5.14,0,0,0,59,285a11,11,0,0,0-.36,2.87A7.33,7.33,0,0,0,60.75,293a7.44,7.44,0,0,0,2.38,1.6,7.53,7.53,0,0,0,3.06.59,10.37,10.37,0,0,0,2-.16,2.74,2.74,0,0,0,1.43-.78,2.45,2.45,0,0,0,.55-.87,4.49,4.49,0,0,0,.26-.82c0-.11.06-.18.07-.22s.07-.06.15-.06a.19.19,0,0,1,.13.08.36.36,0,0,1,.06.2s0,.16,0,.37-.07.46-.12.72-.1.54-.17.82-.11.5-.16.68a1.34,1.34,0,0,1-.18.38,1.26,1.26,0,0,1-.34.21,6.12,6.12,0,0,1-1.7.36c-.7.06-1.4.09-2.08.09A13,13,0,0,1,62,295.61Z"/><path class="cls-1" d="M73.91,285.63a7.81,7.81,0,0,1,1.49-2.56A7.92,7.92,0,0,1,78,281.12a8.37,8.37,0,0,1,3.72-.77,10.19,10.19,0,0,1,3.27.52,7.74,7.74,0,0,1,2.63,1.51,7.06,7.06,0,0,1,1.73,2.39,7.57,7.57,0,0,1,.63,3.15,8.35,8.35,0,0,1-.61,3.19A7.76,7.76,0,0,1,85,295.5a8.88,8.88,0,0,1-3.43.65,8.66,8.66,0,0,1-3.68-.72,7.48,7.48,0,0,1-2.53-1.88A7.3,7.3,0,0,1,73.9,291a8.53,8.53,0,0,1-.48-2.76A7.76,7.76,0,0,1,73.91,285.63Zm2.17,5.22a7.06,7.06,0,0,0,1.39,2.41,6.14,6.14,0,0,0,2.08,1.53,6.33,6.33,0,0,0,2.62.53,6.63,6.63,0,0,0,1.68-.25,4.69,4.69,0,0,0,1.85-1A5.86,5.86,0,0,0,87.21,292a8.52,8.52,0,0,0,.61-3.52,9.2,9.2,0,0,0-.51-3.19A6.71,6.71,0,0,0,85.94,283a5.72,5.72,0,0,0-2-1.4,5.93,5.93,0,0,0-2.36-.48,6.74,6.74,0,0,0-2.41.42,5,5,0,0,0-1.89,1.23A5.67,5.67,0,0,0,76,284.81a8.4,8.4,0,0,0-.45,2.87A9.54,9.54,0,0,0,76.08,290.85Z"/><path class="cls-1" d="M117.55,289c0,1.14,0,2.16,0,3.05s0,1.59.1,2.1a2.9,2.9,0,0,0,.22.88.81.81,0,0,0,.71.42l.58.08.49,0c.12,0,.19.05.19.14s-.13.19-.38.19h-1l-.91,0-.69,0h-.64l-.63,0-.73,0h-.65c-.25,0-.38-.06-.38-.19s.07-.14.2-.14l.35,0,.36-.08a.59.59,0,0,0,.48-.42,3.7,3.7,0,0,0,.2-.88,18.16,18.16,0,0,0,.11-2.1c0-.89,0-1.91,0-3.05v-2.49a.12.12,0,0,0-.14-.14H105.35a.13.13,0,0,0-.14.14V289c0,1.14,0,2.16,0,3.05a18.16,18.16,0,0,0,.11,2.1,2.65,2.65,0,0,0,.21.88.81.81,0,0,0,.71.42l.58.08.49,0c.13,0,.19.05.19.14s-.13.19-.38.19h-1l-.91,0-.69,0h-.64l-.63,0-.73,0h-.64c-.25,0-.38-.06-.38-.19s.06-.14.19-.14l.36,0,.35-.08a.6.6,0,0,0,.49-.42,5,5,0,0,0,.2-.88,20.75,20.75,0,0,0,.11-2.1c0-.89,0-1.91,0-3.05v-7.83c0-.36,0-.65,0-.86s0-.42,0-.61a2,2,0,0,0-.24-.92,1.11,1.11,0,0,0-.78-.43,1.6,1.6,0,0,0-.39-.06h-.42c-.12,0-.19-.05-.19-.14s.13-.19.38-.19h.86l.84,0,.66,0h.64l.63,0,.74,0h.64c.25,0,.38.06.38.19s-.07.14-.19.14h-.25l-.35.06a.9.9,0,0,0-.65.41,2.36,2.36,0,0,0-.22.94c0,.19,0,.39,0,.61s0,.5,0,.86v4.16c0,.09.05.13.14.13h10.06c.1,0,.14,0,.14-.13v-4.16c0-.36,0-.65,0-.86s0-.42,0-.61a2.29,2.29,0,0,0-.24-.92,1.13,1.13,0,0,0-.78-.43,1.79,1.79,0,0,0-.4-.06h-.41c-.13,0-.19-.05-.19-.14s.13-.19.38-.19h.85l.84,0,.67,0h.64l.63,0,.73,0h.65c.25,0,.37.06.37.19s-.06.14-.19.14h-.25l-.34.06a.9.9,0,0,0-.65.41,2.52,2.52,0,0,0-.23.94c0,.19,0,.39,0,.61s0,.5,0,.86V289Z"/><path class="cls-1" d="M125.45,286.47v-3.08c0-.32,0-.57,0-.75a4.12,4.12,0,0,0,0-.51,2.1,2.1,0,0,0-.19-.78.84.84,0,0,0-.66-.33,2.27,2.27,0,0,0-.35,0h-.37c-.11,0-.16-.06-.16-.17s.11-.17.33-.17l.76,0h6.64l.57-.05.38-.06.14-.07.14,0c.07,0,.1.06.1.19a1.16,1.16,0,0,1-.06.32,3.72,3.72,0,0,0-.11.63c0,.05,0,.13,0,.25s0,.25,0,.39,0,.28,0,.4a1.55,1.55,0,0,1,0,.29.31.31,0,0,1-.07.14.13.13,0,0,1-.11.07c-.12,0-.17-.08-.17-.26a2.23,2.23,0,0,0,0-.32,1.3,1.3,0,0,0-.09-.39.74.74,0,0,0-.13-.21.69.69,0,0,0-.25-.17,2.23,2.23,0,0,0-.43-.13c-.17,0-.4-.07-.69-.11a5.24,5.24,0,0,0-.59,0l-1,0h-1.46q-.12,0-.12.21v5.48c0,.15,0,.22.12.22h2.78c.35,0,.58,0,.71,0l.62-.08a.84.84,0,0,0,.4-.2c.17-.18.28-.26.31-.26s.12.05.12.16a2,2,0,0,1-.06.36,5.65,5.65,0,0,0-.11.75c0,.21,0,.46-.07.75s0,.48,0,.56a.77.77,0,0,1,0,.25.14.14,0,0,1-.15.13c-.1,0-.15-.06-.15-.19s0-.2,0-.31a1.31,1.31,0,0,0-.08-.36.72.72,0,0,0-.25-.37,1.66,1.66,0,0,0-.82-.24l-.69-.05-1,0h-1.49c-.1,0-.15,0-.15.13v5.13a4,4,0,0,0,.12.82.94.94,0,0,0,.37.5,1.75,1.75,0,0,0,.75.23,10.35,10.35,0,0,0,1.26.06c.26,0,.61,0,1,0a2.93,2.93,0,0,0,1-.19,1.57,1.57,0,0,0,.63-.49,2,2,0,0,0,.32-.91c0-.2.12-.31.22-.31a.1.1,0,0,1,.11.1.66.66,0,0,1,0,.21s0,.13,0,.3,0,.35-.07.57L133,295a2.66,2.66,0,0,1-.1.47.71.71,0,0,1-.13.29.45.45,0,0,1-.2.16,1.14,1.14,0,0,1-.32.06h-.51l-2.09,0-1.54-.05c-.44,0-.81-.05-1.09-.05h-1l-.59,0-.63,0h-.58c-.22,0-.33-.05-.33-.17a.14.14,0,0,1,.16-.16,1.27,1.27,0,0,0,.32,0l.32-.06a.43.43,0,0,0,.39-.33,5.53,5.53,0,0,0,.16-.73,12.83,12.83,0,0,0,.1-1.76c0-.76,0-1.63,0-2.61Z"/><path class="cls-1" d="M138.52,286.47v-3.08c0-.32,0-.57,0-.75s0-.35,0-.51a1.92,1.92,0,0,0-.19-.78c-.1-.18-.31-.28-.66-.33a2.27,2.27,0,0,0-.35,0h-.37c-.11,0-.16-.06-.16-.17s.11-.17.33-.17l.77,0h3.66l.65,0a14.22,14.22,0,0,1,2,.16,4.55,4.55,0,0,1,1.86.72l.44.39a3.9,3.9,0,0,1,.47.61,3.85,3.85,0,0,1,.38.79,3,3,0,0,1,.16,1,5,5,0,0,1-.56,2.24,7.89,7.89,0,0,1-2,2.36l2.37,2.94c.73.89,1.4,1.64,2,2.28a5.22,5.22,0,0,0,1.37,1.1,3.51,3.51,0,0,0,1,.3l.48.06h.26c.13,0,.19.06.19.16a.13.13,0,0,1-.11.13,1.17,1.17,0,0,1-.39,0h-1.3a7.71,7.71,0,0,1-1.37-.09,3.38,3.38,0,0,1-.86-.31,4.67,4.67,0,0,1-1.32-1.09c-.42-.49-.93-1.12-1.53-1.88l-.67-.84-.62-.83-.55-.72c-.17-.22-.3-.41-.42-.55a.38.38,0,0,0-.28-.12l-2.66,0c-.09,0-.14.06-.14.17v.47c0,1,0,1.85,0,2.6s0,1.33.09,1.75a1.71,1.71,0,0,0,.2.72.78.78,0,0,0,.63.34,4.56,4.56,0,0,0,.49.08l.43,0a.15.15,0,0,1,.17.16c0,.12-.11.17-.34.17h-.86l-.81,0-.61,0h-.28l-.79,0-.68,0h-.59c-.22,0-.33-.05-.33-.17a.14.14,0,0,1,.16-.16l.32,0,.32-.08a.49.49,0,0,0,.4-.34,7.27,7.27,0,0,0,.15-.72,14.29,14.29,0,0,0,.11-1.76c0-.76,0-1.63,0-2.61Zm1.8,1.71a.3.3,0,0,0,.14.26,1.07,1.07,0,0,0,.36.12l.56.09c.21,0,.44.06.67.08l.71,0a5.32,5.32,0,0,0,.79-.05,1.63,1.63,0,0,0,.78-.31,2.57,2.57,0,0,0,.9-1.13,4.72,4.72,0,0,0,.36-1.95,4.14,4.14,0,0,0-1-2.93,3.44,3.44,0,0,0-2.65-1q-.47,0-.9,0a3.2,3.2,0,0,0-.59.09.27.27,0,0,0-.17.23Z"/><path class="cls-1" d="M155.34,293.14c0,.41,0,.75.07,1a3.33,3.33,0,0,0,.14.69.85.85,0,0,0,.24.4.69.69,0,0,0,.35.18,3.76,3.76,0,0,0,.6.1l.45,0a.14.14,0,0,1,.16.16c0,.12-.12.17-.38.17-.6,0-1.09,0-1.48,0l-.72,0-.73,0c-.38,0-.81,0-1.29,0-.22,0-.33-.05-.33-.17a.14.14,0,0,1,.16-.16l.37,0a2.66,2.66,0,0,0,.49-.1.53.53,0,0,0,.31-.19,1.09,1.09,0,0,0,.18-.43,5.76,5.76,0,0,0,.08-.74c0-.31,0-.7,0-1.16V281.37a2.42,2.42,0,0,1,.09-.82c0-.13.12-.2.2-.2a.64.64,0,0,1,.41.23l.39.39.71.75,1.5,1.57c.6.64,1.28,1.35,2,2.14s1.54,1.6,2.35,2.42c.52.54,1,1.08,1.55,1.63l1.45,1.53,1.19,1.25.74.79-.21-10.11a4.94,4.94,0,0,0-.17-1.38.73.73,0,0,0-.61-.49,5.44,5.44,0,0,0-.6-.08l-.42,0a.16.16,0,0,1-.15-.07.74.74,0,0,1,0-.12c0-.1.13-.15.4-.15.48,0,.93,0,1.36,0l.83,0c.12,0,.34,0,.66,0s.69,0,1.11,0q.39,0,.39.15a.22.22,0,0,1-.06.12.25.25,0,0,1-.18.07h-.19a1,1,0,0,0-.31,0,.82.82,0,0,0-.4.16.74.74,0,0,0-.22.32,1.73,1.73,0,0,0-.09.51c0,.21,0,.46,0,.76l-.05,11.81c0,.34,0,.6,0,.79s0,.34,0,.44,0,.16,0,.19a.11.11,0,0,1-.08,0,.32.32,0,0,1-.17,0l-.27-.17c-.12-.09-.27-.21-.45-.37l-.7-.64-.63-.61c-.37-.35-.82-.79-1.34-1.32l-1.71-1.73-1.75-1.8-1.77-1.86-1.6-1.68-1.27-1.34c-.35-.39-.61-.66-.77-.83Z"/><path class="cls-1" d="M177.4,281a4.1,4.1,0,0,1,.28-.64.27.27,0,0,1,.22-.14c.11,0,.19.07.25.2s.14.31.25.53l.41,1c.22.52.47,1.15.77,1.88l1,2.43c.35.87.7,1.74,1.05,2.59l1,2.43c.3.77.57,1.41.79,1.91a8.63,8.63,0,0,0,.53,1.09,4.39,4.39,0,0,0,.48.65,1.88,1.88,0,0,0,.42.33,2,2,0,0,0,.35.14,2.84,2.84,0,0,0,.45.1l.38,0,.18,0a.14.14,0,0,1,.08.13c0,.07-.05.11-.14.13a1.15,1.15,0,0,1-.33,0h-2.22l-1.08,0-.52,0c-.14,0-.22-.05-.22-.11a.08.08,0,0,1,0-.08l.11-.06a.72.72,0,0,0,.2-.17c.07-.07.07-.2,0-.37l-1.88-4.63a.21.21,0,0,0-.19-.12h-4.81a.23.23,0,0,0-.22.17l-1.18,3.22a3.87,3.87,0,0,0-.31,1.36.42.42,0,0,0,.23.42,1,1,0,0,0,.48.12h.19c.14,0,.21.06.21.16s-.1.17-.3.17h-.48l-.57,0-.51,0h-.61l-.53,0-.64,0h-.65c-.27,0-.4-.05-.4-.17s.06-.16.19-.16h.3l.31,0a1.5,1.5,0,0,0,1.08-.59,5.89,5.89,0,0,0,.68-1.26Zm2.33,8.4c.06,0,.08-.05.06-.14l-2.06-5.53q-.18-.45-.36,0l-1.94,5.53c0,.09,0,.14.07.14Zm1.51-12.59.34.61c.06.11.07.18,0,.22a.18.18,0,0,1-.13.06l-.23,0a1.64,1.64,0,0,0-.48,0,7.54,7.54,0,0,0-.94.17c-.34.08-.67.16-1,.26s-.64.19-.93.29l-.73.28a1.5,1.5,0,0,1-.35.12c-.08,0-.12-.05-.12-.14s.05-.13.16-.19.49-.33.83-.55l1-.65c.34-.22.64-.4.9-.55l.46-.27a4.29,4.29,0,0,1,.44-.25.56.56,0,0,1,.22-.06q.1,0,.24.21Z"/><path class="cls-1" d="M189.9,293.14c0,.41,0,.75.07,1a2.74,2.74,0,0,0,.15.69.94.94,0,0,0,.23.4.77.77,0,0,0,.36.18,3.83,3.83,0,0,0,.59.1l.45,0a.15.15,0,0,1,.17.16c0,.12-.13.17-.38.17-.6,0-1.1,0-1.48,0l-.73,0-.72,0c-.39,0-.82,0-1.29,0-.22,0-.34-.05-.34-.17a.15.15,0,0,1,.17-.16l.37,0a2.4,2.4,0,0,0,.48-.1.53.53,0,0,0,.31-.19,1,1,0,0,0,.18-.43,4.39,4.39,0,0,0,.08-.74c0-.31,0-.7,0-1.16V281.37a2.5,2.5,0,0,1,.08-.82c.06-.13.12-.2.2-.2a.64.64,0,0,1,.42.23l.39.39.71.75,1.5,1.57c.6.64,1.28,1.35,2,2.14s1.54,1.6,2.34,2.42c.53.54,1,1.08,1.56,1.63l1.44,1.53c.46.47.85.89,1.19,1.25l.75.79L201,282.94a5,5,0,0,0-.16-1.38.75.75,0,0,0-.62-.49,5.59,5.59,0,0,0-.59-.08l-.43,0a.14.14,0,0,1-.14-.07.3.3,0,0,1,0-.12c0-.1.13-.15.4-.15.47,0,.93,0,1.35,0l.83,0c.13,0,.35,0,.67,0s.68,0,1.11,0c.25,0,.38.05.38.15a.22.22,0,0,1-.06.12.25.25,0,0,1-.18.07h-.19a.93.93,0,0,0-.3,0,.86.86,0,0,0-.41.16.81.81,0,0,0-.21.32,2.09,2.09,0,0,0-.1.51c0,.21,0,.46,0,.76l-.05,11.81c0,.34,0,.6,0,.79s0,.34,0,.44a.44.44,0,0,1,0,.19.11.11,0,0,1-.08,0,.3.3,0,0,1-.17,0l-.27-.17c-.12-.09-.27-.21-.45-.37s-.42-.37-.7-.64l-.63-.61c-.37-.35-.82-.79-1.34-1.32l-1.71-1.73-1.75-1.8q-.92-.94-1.77-1.86l-1.6-1.68c-.49-.52-.92-1-1.27-1.34l-.77-.83Z"/><path class="cls-1" d="M208.79,286.47v-3.08c0-.32,0-.57,0-.75a4.12,4.12,0,0,0,0-.51,2.1,2.1,0,0,0-.19-.78.84.84,0,0,0-.66-.33,2.27,2.27,0,0,0-.35,0h-.37c-.11,0-.16-.06-.16-.17s.11-.17.33-.17l.76,0h3.53l.93,0,1.84,0a14.27,14.27,0,0,1,2.2.2,9.6,9.6,0,0,1,2.28.68,6.38,6.38,0,0,1,2.05,1.41,7.68,7.68,0,0,1,1.41,2.05,6.86,6.86,0,0,1,.63,3.07,7.86,7.86,0,0,1-.19,1.79,8.9,8.9,0,0,1-.49,1.56,7.32,7.32,0,0,1-.73,1.29,9.11,9.11,0,0,1-.84,1,6.37,6.37,0,0,1-.87.76,6.55,6.55,0,0,1-1.3.75,10.3,10.3,0,0,1-1.8.58,10.55,10.55,0,0,1-2.37.24c-.45,0-.94,0-1.45,0l-1.46-.08-1.16-.09-.55,0h-.85l-.67,0h-.59c-.22,0-.33-.05-.33-.17a.14.14,0,0,1,.16-.16l.32,0,.32-.08a.46.46,0,0,0,.39-.34,5,5,0,0,0,.16-.72,12.83,12.83,0,0,0,.1-1.76c0-.76,0-1.63,0-2.61Zm1.89,2.18v2.88c0,.38,0,.7,0,1s0,.45,0,.55,0,.53.07.83a1,1,0,0,0,.47.9,2.58,2.58,0,0,0,.61.26,6.1,6.1,0,0,0,1,.19,13.19,13.19,0,0,0,1.54.07,7.64,7.64,0,0,0,2.69-.46,6.52,6.52,0,0,0,2.2-1.37,4.1,4.1,0,0,0,.71-.91,7.14,7.14,0,0,0,.51-1.16,10.77,10.77,0,0,0,.31-1.33,9.38,9.38,0,0,0,.1-1.39,7.25,7.25,0,0,0-.19-1.74,7.5,7.5,0,0,0-.47-1.43,5.4,5.4,0,0,0-.64-1.09,10.09,10.09,0,0,0-.67-.79,7.2,7.2,0,0,0-1.53-1.19,7.4,7.4,0,0,0-1.65-.69,10.17,10.17,0,0,0-1.75-.31c-.6,0-1.21-.07-1.83-.07a6.72,6.72,0,0,0-.71.05,3.58,3.58,0,0,0-.55.09.4.4,0,0,0-.26.41Z"/><path class="cls-1" d="M228,286.47v-3.08c0-.32,0-.57,0-.75s0-.35,0-.51a1.92,1.92,0,0,0-.19-.78c-.1-.18-.31-.28-.66-.33a2.27,2.27,0,0,0-.35,0h-.37c-.11,0-.16-.06-.16-.17s.11-.17.33-.17l.76,0h6.64l.57-.05.38-.06.14-.07.15,0c.06,0,.09.06.09.19a1.16,1.16,0,0,1-.06.32,4,4,0,0,0-.1.63c0,.05,0,.13,0,.25s0,.25,0,.39,0,.28,0,.4,0,.22,0,.29a.5.5,0,0,1-.08.14.12.12,0,0,1-.11.07c-.11,0-.17-.08-.17-.26s0-.19,0-.32a1.72,1.72,0,0,0-.1-.39.57.57,0,0,0-.13-.21.61.61,0,0,0-.25-.17,2.35,2.35,0,0,0-.42-.13c-.18,0-.41-.07-.69-.11a5.41,5.41,0,0,0-.59,0l-1,0H230c-.09,0-.12.07-.12.21v5.48c0,.15,0,.22.12.22h2.77c.35,0,.58,0,.71,0l.62-.08a.8.8,0,0,0,.4-.2c.18-.18.28-.26.31-.26s.12.05.12.16a2,2,0,0,1-.06.36,5.65,5.65,0,0,0-.11.75c0,.21,0,.46-.07.75s0,.48,0,.56a.77.77,0,0,1,0,.25.14.14,0,0,1-.15.13c-.1,0-.14-.06-.14-.19s0-.2,0-.31a1,1,0,0,0-.08-.36.67.67,0,0,0-.25-.37,1.62,1.62,0,0,0-.82-.24l-.69-.05-1,0H230c-.1,0-.14,0-.14.13v5.13a3,3,0,0,0,.12.82.87.87,0,0,0,.36.5,1.75,1.75,0,0,0,.75.23,10.58,10.58,0,0,0,1.26.06c.26,0,.61,0,1,0a2.88,2.88,0,0,0,1-.19,1.57,1.57,0,0,0,.63-.49,2,2,0,0,0,.32-.91c0-.2.12-.31.22-.31a.12.12,0,0,1,.12.1,1.25,1.25,0,0,1,0,.21s0,.13,0,.3,0,.35-.08.57l-.09.61a2.66,2.66,0,0,1-.1.47.71.71,0,0,1-.13.29.45.45,0,0,1-.2.16,1.14,1.14,0,0,1-.32.06h-.51l-2.09,0-1.54-.05c-.44,0-.8-.05-1.09-.05h-1l-.59,0-.63,0h-.58c-.22,0-.33-.05-.33-.17a.14.14,0,0,1,.16-.16,1.22,1.22,0,0,0,.32,0l.32-.06a.45.45,0,0,0,.4-.33c0-.19.1-.43.15-.73a14.29,14.29,0,0,0,.11-1.76c0-.76,0-1.63,0-2.61Z"/><path class="cls-1" d="M247,294.94a12.93,12.93,0,0,0,1.38-.06,3.81,3.81,0,0,0,.9-.19,1.89,1.89,0,0,0,.57-.29,2.94,2.94,0,0,0,.4-.39,1.26,1.26,0,0,0,.28-.53c.07-.23.12-.41.15-.56s.13-.31.24-.31a.15.15,0,0,1,.13.09,1.23,1.23,0,0,1,0,.37,4,4,0,0,1-.05.55c0,.22-.07.43-.12.66s-.1.43-.14.63-.09.36-.12.48-.12.41-.18.45a.77.77,0,0,1-.44.08c-1.76,0-3.51,0-5.28-.05s-3.56-.05-5.39-.05c-.26,0-.38-.06-.38-.17a.68.68,0,0,1,0-.2,2,2,0,0,1,.24-.41c1.58-2.28,3.13-4.53,4.65-6.77s3-4.47,4.44-6.73h-4.42l-1.63,0a3.31,3.31,0,0,0-1.33.3,2,2,0,0,0-.84.76,2.09,2.09,0,0,0-.35.83.53.53,0,0,1-.12.3.22.22,0,0,1-.16.05c-.08,0-.12-.08-.12-.26s0-.21.05-.43.07-.48.12-.76.09-.56.14-.83.08-.5.12-.66.07-.37.19-.37a.86.86,0,0,1,.3.05,2.12,2.12,0,0,0,.57.08c1,0,1.77.05,2.33.05h7.16c.29,0,.43.06.43.17a1.28,1.28,0,0,1,0,.17.54.54,0,0,1-.1.18c-1.53,2.35-3.06,4.64-4.58,6.9s-3.07,4.53-4.65,6.84Z"/><path class="cls-1" d="M3.4,313.3v-3.65c0-.36,0-.65,0-.86s0-.42,0-.61a2.15,2.15,0,0,0-.23-.92,1.13,1.13,0,0,0-.78-.43,1.35,1.35,0,0,0-.4-.06H1.53c-.13,0-.19-.05-.19-.14s.13-.19.38-.19h.85l.85,0,.66,0h.73l.76,0,1,0H9.68a14.81,14.81,0,0,1,2.5.25,11.49,11.49,0,0,1,2.59.79,7.51,7.51,0,0,1,2.35,1.65A9.57,9.57,0,0,1,18,310.2a7.4,7.4,0,0,1,.74,1.34,9.14,9.14,0,0,1,.51,1.65,10,10,0,0,1,.19,2,9.61,9.61,0,0,1-.22,2.11,10.14,10.14,0,0,1-.57,1.84,9.21,9.21,0,0,1-.81,1.53,8.59,8.59,0,0,1-1,1.2,8.17,8.17,0,0,1-1,.88,7.33,7.33,0,0,1-1.48.89,10.15,10.15,0,0,1-2,.69,12,12,0,0,1-2.68.27c-.51,0-1.06,0-1.65,0l-1.65-.1L5,324.34l-.64,0H4.09l-.64,0-.73,0-.65,0c-.25,0-.37-.06-.37-.19s.06-.14.19-.14l.35,0,.36-.08a.61.61,0,0,0,.48-.42,4.22,4.22,0,0,0,.21-.88c.06-.51.09-1.21.1-2.1s0-1.91,0-3Zm2,2.57v1.8c0,.57,0,1.08,0,1.54s0,.85,0,1.17,0,.53,0,.63a4.42,4.42,0,0,0,0,.49c0,.18,0,.36,0,.54a3.06,3.06,0,0,0,.08.47.83.83,0,0,0,.12.31,1.31,1.31,0,0,0,.36.33,3,3,0,0,0,.71.31,6.9,6.9,0,0,0,1.19.22,14.62,14.62,0,0,0,1.77.09,8.55,8.55,0,0,0,3.12-.57,7.28,7.28,0,0,0,2.52-1.64,4.91,4.91,0,0,0,.81-1.09,8.34,8.34,0,0,0,.61-1.39,9.72,9.72,0,0,0,.36-1.55,11.21,11.21,0,0,0,.12-1.64,9.26,9.26,0,0,0-.21-2.06,8.49,8.49,0,0,0-.56-1.68,7.94,7.94,0,0,0-.75-1.3,9.31,9.31,0,0,0-.76-.94,8.09,8.09,0,0,0-1.75-1.41,8.53,8.53,0,0,0-1.9-.82,9.62,9.62,0,0,0-2-.36c-.68-.06-1.38-.09-2.09-.09H6.83l-.46,0-.42.06-.24.06a.45.45,0,0,0-.29.47c0,.21,0,.5,0,.88s0,.81,0,1.28v5.84Z"/><path class="cls-1" d="M26.51,318.5c0,1,0,1.85,0,2.61s0,1.34.09,1.76a2.41,2.41,0,0,0,.16.72.71.71,0,0,0,.59.34l.53.08.42,0c.11,0,.17.05.17.16s-.11.17-.33.17h-.88l-.83,0-.63,0h-.56l-.56,0-.65,0h-.56c-.23,0-.34-.05-.34-.17s.06-.16.17-.16l.32,0,.32-.08a.52.52,0,0,0,.4-.34,3.39,3.39,0,0,0,.14-.72c.05-.42.08-1,.1-1.76s0-1.63,0-2.61v-6.64c0-.32,0-.57,0-.75s0-.35,0-.51a2.07,2.07,0,0,0-.18-.77.7.7,0,0,0-.48-.32l-.36-.06h-.28a.15.15,0,0,1-.17-.17c0-.11.12-.17.34-.17l.6,0h3l.58,0c.22,0,.33.06.33.17a.15.15,0,0,1-.17.17h-.24a1,1,0,0,0-.28.05.77.77,0,0,0-.56.33,2.34,2.34,0,0,0-.18.78c0,.16,0,.33,0,.51s0,.43,0,.75v6.64Z"/><path class="cls-1" d="M33.55,324.5a5.27,5.27,0,0,1-1.47-.42.56.56,0,0,1-.26-.24,2,2,0,0,1,0-.53c0-.5,0-.94,0-1.31s.06-.65.08-.82.05-.33.16-.33.19.08.19.23,0,.19,0,.33a3.12,3.12,0,0,0,.06.41,2.13,2.13,0,0,0,.45.93,2.54,2.54,0,0,0,.8.61,3.76,3.76,0,0,0,1,.35,5.51,5.51,0,0,0,1.06.1,3.24,3.24,0,0,0,2.35-.76,2.61,2.61,0,0,0,.78-1.92,2.91,2.91,0,0,0-.15-1,3,3,0,0,0-.48-.82,5.2,5.2,0,0,0-.82-.79c-.33-.27-.72-.58-1.18-.93l-.95-.71a9.76,9.76,0,0,1-2.34-2.27,3.73,3.73,0,0,1-.32-3.64,3.35,3.35,0,0,1,1-1.2,4.46,4.46,0,0,1,1.46-.74,6.49,6.49,0,0,1,1.89-.26,9.17,9.17,0,0,1,1.19.07,9.5,9.5,0,0,1,1,.16,3.63,3.63,0,0,0,.47.09h.27c.14,0,.21.05.21.14s0,.24,0,.58a15.43,15.43,0,0,0,0,1.56c0,.3-.06.45-.17.45a.14.14,0,0,1-.14-.07c0-.05,0-.12,0-.19a2.25,2.25,0,0,0-.12-.51,1.85,1.85,0,0,0-.19-.49,1.17,1.17,0,0,0-.21-.26,1.88,1.88,0,0,0-.49-.33,3.66,3.66,0,0,0-.8-.29,5.17,5.17,0,0,0-1.2-.12,3.42,3.42,0,0,0-2,.56,1.85,1.85,0,0,0-.82,1.63,3.12,3.12,0,0,0,.13.88,2.66,2.66,0,0,0,.45.79,6.57,6.57,0,0,0,.84.81,15.4,15.4,0,0,0,1.29.93l.59.4a13.77,13.77,0,0,1,1.6,1.25A7,7,0,0,1,39.63,318a4.17,4.17,0,0,1,.58,1.18,4.39,4.39,0,0,1,.18,1.25,4.22,4.22,0,0,1-.42,1.8,4,4,0,0,1-1.53,1.64,4.14,4.14,0,0,1-1.56.57,12,12,0,0,1-1.76.14A11.1,11.1,0,0,1,33.55,324.5Z"/><path class="cls-1" d="M46.27,314.94v-3.08c0-.32,0-.57,0-.75s0-.35,0-.51a1.92,1.92,0,0,0-.19-.78q-.14-.27-.66-.33a2.27,2.27,0,0,0-.35,0h-.36a.15.15,0,0,1-.17-.17c0-.11.11-.17.33-.17l.76,0h6.64l.57,0,.38-.07.15-.06a.32.32,0,0,1,.14,0c.06,0,.09.06.09.19a1.16,1.16,0,0,1-.06.32,4,4,0,0,0-.1.63c0,.05,0,.13,0,.25a2.77,2.77,0,0,1,0,.39c0,.14,0,.28,0,.4a1.72,1.72,0,0,1,0,.29l-.07.14a.13.13,0,0,1-.12.07c-.11,0-.17-.09-.17-.26a2,2,0,0,0,0-.32,1.59,1.59,0,0,0-.1-.39.71.71,0,0,0-.13-.22.72.72,0,0,0-.25-.16,2.35,2.35,0,0,0-.42-.13,6.29,6.29,0,0,0-.69-.11,5.24,5.24,0,0,0-.59,0l-1,0H48.29q-.12,0-.12.21v5.48c0,.15,0,.22.12.22h2.77a6.93,6.93,0,0,0,.71,0l.62-.08a.8.8,0,0,0,.4-.2c.18-.18.28-.27.31-.27s.12.06.12.17a2.11,2.11,0,0,1-.06.36,6,6,0,0,0-.1.75,6.65,6.65,0,0,0-.08.75c0,.3,0,.48,0,.56a.77.77,0,0,1,0,.25.14.14,0,0,1-.15.13c-.1,0-.14-.07-.14-.19s0-.2,0-.31a1.35,1.35,0,0,0-.09-.36.63.63,0,0,0-.25-.37,1.57,1.57,0,0,0-.81-.24l-.69,0-1,0H48.31a.13.13,0,0,0-.14.14v5.13a3,3,0,0,0,.12.82.87.87,0,0,0,.36.5,1.84,1.84,0,0,0,.75.23,10.58,10.58,0,0,0,1.26.06c.27,0,.62,0,1,0a3.23,3.23,0,0,0,1-.19,1.63,1.63,0,0,0,.62-.49,2,2,0,0,0,.32-.91c.05-.2.12-.31.22-.31a.12.12,0,0,1,.12.1,1.25,1.25,0,0,1,0,.21s0,.13,0,.3,0,.35-.07.57-.07.41-.1.61a3.72,3.72,0,0,1-.09.46.84.84,0,0,1-.13.3.54.54,0,0,1-.21.16,1.07,1.07,0,0,1-.32.06h-.5c-.8,0-1.49,0-2.09,0l-1.55,0c-.44,0-.8,0-1.09,0h-1l-.59,0-.63,0h-.58c-.22,0-.33-.05-.33-.17s.05-.16.17-.16a1.88,1.88,0,0,0,.31,0l.33-.06a.45.45,0,0,0,.39-.33c0-.19.1-.43.15-.73a12.54,12.54,0,0,0,.11-1.76c0-.76,0-1.63,0-2.61Z"/><path class="cls-1" d="M60.22,321.61c0,.41,0,.75.07,1a3.33,3.33,0,0,0,.14.69,1.06,1.06,0,0,0,.24.4.72.72,0,0,0,.36.18,3.63,3.63,0,0,0,.59.1l.45,0a.14.14,0,0,1,.16.16c0,.12-.12.17-.37.17-.61,0-1.1,0-1.49,0l-.72,0-.72,0c-.39,0-.82,0-1.3,0-.22,0-.33-.05-.33-.17s.06-.16.17-.16l.36,0a2.66,2.66,0,0,0,.49-.1.58.58,0,0,0,.31-.19,1,1,0,0,0,.18-.43,4.4,4.4,0,0,0,.08-.75c0-.3,0-.69,0-1.15V309.84A2.42,2.42,0,0,1,59,309c0-.13.12-.2.2-.2a.62.62,0,0,1,.41.23l.4.39.71.75,1.49,1.57c.6.64,1.28,1.35,2,2.14s1.54,1.6,2.35,2.42l1.56,1.62,1.44,1.53,1.19,1.26.75.78-.22-10.1a5,5,0,0,0-.16-1.38.77.77,0,0,0-.62-.5l-.59-.07-.43,0c-.08,0-.13,0-.14-.08a.26.26,0,0,1,0-.11c0-.1.14-.15.41-.15q.7,0,1.35,0l.83,0c.12,0,.35,0,.66,0s.69,0,1.12,0c.25,0,.38,0,.38.15a.17.17,0,0,1-.06.11.22.22,0,0,1-.18.08h-.19a1,1,0,0,0-.31.05.82.82,0,0,0-.4.16.74.74,0,0,0-.22.32,2.79,2.79,0,0,0-.09.51c0,.21,0,.46,0,.76l0,11.81c0,.34,0,.6,0,.79s0,.34,0,.44a.35.35,0,0,1,0,.19l-.09,0a.41.41,0,0,1-.16-.05,2.08,2.08,0,0,1-.28-.17l-.45-.37-.7-.64s-.25-.25-.63-.61-.81-.79-1.33-1.32l-1.71-1.73-1.76-1.8L63.62,316c-.57-.61-1.11-1.17-1.6-1.68l-1.27-1.34c-.35-.39-.61-.66-.77-.83Zm5.89-14.53-.77-.37a6.51,6.51,0,0,1-.7-.35,1.91,1.91,0,0,0-.91-.2,1.43,1.43,0,0,0-.56.11,2.12,2.12,0,0,0-.42.25,2,2,0,0,0-.29.28,1.64,1.64,0,0,1-.18.22.48.48,0,0,1-.33.21.12.12,0,0,1-.14-.14.26.26,0,0,1,0-.17,1.39,1.39,0,0,0,.11-.19c.08-.12.2-.28.35-.47a5.27,5.27,0,0,1,.51-.56,3.5,3.5,0,0,1,.59-.46,1.11,1.11,0,0,1,.6-.19,2.21,2.21,0,0,1,.93.24c.34.15.69.32,1.06.5l.67.26a2.39,2.39,0,0,0,.7.14,1.61,1.61,0,0,0,.6-.1,2,2,0,0,0,.44-.21,2.5,2.5,0,0,0,.28-.22l.13-.16c.11-.17.21-.26.29-.26s.16.05.16.14a.79.79,0,0,1-.09.31,2.48,2.48,0,0,1-.29.41,4.22,4.22,0,0,1-.5.55,4.43,4.43,0,0,1-.59.48,1.1,1.1,0,0,1-.59.2A2.58,2.58,0,0,1,66.11,307.08Z"/><path class="cls-1" d="M82.28,309.51a3.47,3.47,0,0,1,.29-.64.24.24,0,0,1,.21-.14c.11,0,.19.07.25.2s.14.31.25.53.2.47.41,1,.47,1.15.77,1.88l1,2.43,1.06,2.59,1,2.43c.31.77.57,1.41.79,1.91a7.35,7.35,0,0,0,.54,1.09,3.79,3.79,0,0,0,.47.65,1.88,1.88,0,0,0,.42.33,2,2,0,0,0,.35.14,2.84,2.84,0,0,0,.45.1l.38,0a.52.52,0,0,1,.18,0,.13.13,0,0,1,.08.13c0,.07,0,.11-.14.13a1.06,1.06,0,0,1-.33,0H88.46l-1.08,0-.52,0c-.14,0-.21,0-.21-.11s0-.07,0-.08l.11-.06a.72.72,0,0,0,.2-.17c.07-.08.07-.2,0-.38l-1.87-4.62a.23.23,0,0,0-.2-.12H80.1a.21.21,0,0,0-.21.17l-1.19,3.22a3.87,3.87,0,0,0-.31,1.35.44.44,0,0,0,.23.43,1,1,0,0,0,.48.12h.19c.15,0,.22.05.22.16s-.11.17-.31.17h-.48l-.57,0-.51,0H77l-.53,0-.64,0h-.65c-.27,0-.4-.05-.4-.17s.06-.16.19-.16l.31,0a1.21,1.21,0,0,0,.3,0,1.54,1.54,0,0,0,1.09-.59,5.89,5.89,0,0,0,.67-1.26Zm2.33,8.4c.06,0,.08-.05.07-.14l-2.07-5.53c-.12-.31-.24-.31-.35,0l-2,5.53c0,.09,0,.14.07.14Z"/><path class="cls-1" d="M93.9,314.94v-3.08c0-.32,0-.57,0-.75s0-.35,0-.51a2.1,2.1,0,0,0-.19-.78.81.81,0,0,0-.67-.33,2.11,2.11,0,0,0-.34,0h-.37c-.11,0-.16-.06-.16-.17s.11-.17.33-.17l.76,0h3.53l.93,0,1.84,0a14.27,14.27,0,0,1,2.2.2A9.6,9.6,0,0,1,104,310a6.49,6.49,0,0,1,2,1.41,7.68,7.68,0,0,1,1.41,2,6.83,6.83,0,0,1,.63,3.07,7.86,7.86,0,0,1-.19,1.79,8.14,8.14,0,0,1-.5,1.56,6.7,6.7,0,0,1-.72,1.29,10.35,10.35,0,0,1-.84,1,6.37,6.37,0,0,1-.87.76,6.55,6.55,0,0,1-1.3.75,10.15,10.15,0,0,1-1.81.58,10.39,10.39,0,0,1-2.36.24c-.46,0-.94,0-1.46,0l-1.45-.08-1.17-.09-.54,0H94l-.66,0h-.59c-.22,0-.34-.05-.34-.17s.06-.16.17-.16l.32,0,.32-.08a.48.48,0,0,0,.39-.34,5,5,0,0,0,.16-.72,14.67,14.67,0,0,0,.1-1.76c0-.76,0-1.63,0-2.61Zm1.9,2.18V320c0,.38,0,.7,0,1s0,.45,0,.54c0,.26,0,.53.07.83a1,1,0,0,0,.47.91,2.58,2.58,0,0,0,.61.26,7.07,7.07,0,0,0,1,.19,13.19,13.19,0,0,0,1.54.07,7.87,7.87,0,0,0,2.69-.46,6.39,6.39,0,0,0,2.19-1.37,4.13,4.13,0,0,0,.72-.91,7.14,7.14,0,0,0,.51-1.16,11.21,11.21,0,0,0,.31-1.33,11,11,0,0,0,.1-1.39,7.39,7.39,0,0,0-.19-1.75,8.15,8.15,0,0,0-.47-1.42,5.91,5.91,0,0,0-.64-1.09,10.09,10.09,0,0,0-.67-.79,6.89,6.89,0,0,0-1.53-1.19,7.4,7.4,0,0,0-1.65-.69,9.29,9.29,0,0,0-1.75-.31c-.6-.05-1.21-.07-1.83-.07a6.72,6.72,0,0,0-.71.05,3.58,3.58,0,0,0-.55.09.4.4,0,0,0-.26.41Z"/><path class="cls-1" d="M111.21,314.1a8,8,0,0,1,1.49-2.56,8.14,8.14,0,0,1,2.58-2,8.37,8.37,0,0,1,3.72-.77,10.29,10.29,0,0,1,3.28.52,7.79,7.79,0,0,1,2.62,1.51,6.89,6.89,0,0,1,1.73,2.38,7.65,7.65,0,0,1,.63,3.16,8.38,8.38,0,0,1-.61,3.19A7.82,7.82,0,0,1,125,322.2a8,8,0,0,1-2.65,1.77,8.83,8.83,0,0,1-3.42.65,8.63,8.63,0,0,1-3.68-.72,7.55,7.55,0,0,1-2.54-1.88,7.46,7.46,0,0,1-1.47-2.56,8.53,8.53,0,0,1-.48-2.76A8,8,0,0,1,111.21,314.1Zm2.17,5.22a7.23,7.23,0,0,0,1.39,2.41,6.18,6.18,0,0,0,2.09,1.53,6.46,6.46,0,0,0,2.62.53,6.63,6.63,0,0,0,1.67-.25,4.69,4.69,0,0,0,1.85-1,5.75,5.75,0,0,0,1.51-2.08,8.52,8.52,0,0,0,.61-3.52,9.45,9.45,0,0,0-.5-3.19,6.73,6.73,0,0,0-1.38-2.31,5.68,5.68,0,0,0-2-1.4,6,6,0,0,0-2.36-.48,6.66,6.66,0,0,0-2.41.42,5,5,0,0,0-1.9,1.23,5.67,5.67,0,0,0-1.25,2,8.35,8.35,0,0,0-.45,2.87A9.54,9.54,0,0,0,113.38,319.32Z"/><path class="cls-1" d="M132.26,314.94v-3.08c0-.32,0-.57,0-.75s0-.35,0-.51a2.1,2.1,0,0,0-.19-.78.81.81,0,0,0-.67-.33,2.11,2.11,0,0,0-.34,0h-.37c-.11,0-.16-.06-.16-.17s.11-.17.33-.17l.77,0h3.65l.66,0a14.08,14.08,0,0,1,2,.16,4.31,4.31,0,0,1,1.86.72,4.58,4.58,0,0,1,.44.39,3.41,3.41,0,0,1,.48.61,4.45,4.45,0,0,1,.38.79,3,3,0,0,1,.15,1,4.92,4.92,0,0,1-.56,2.25,8,8,0,0,1-2,2.36c.85,1.07,1.65,2.05,2.37,2.94s1.39,1.64,2,2.28a5.22,5.22,0,0,0,1.37,1.1,3.4,3.4,0,0,0,1,.3,3.77,3.77,0,0,0,.47.05l.26,0c.13,0,.2.05.2.16a.13.13,0,0,1-.11.13,1.17,1.17,0,0,1-.39,0h-1.31a7.66,7.66,0,0,1-1.36-.09,3.6,3.6,0,0,1-.87-.31,4.67,4.67,0,0,1-1.32-1.09c-.41-.49-.92-1.12-1.52-1.88-.23-.27-.45-.55-.67-.84l-.63-.83-.54-.72-.42-.55a.38.38,0,0,0-.28-.12l-2.66-.05c-.1,0-.14.06-.14.17v.47c0,1,0,1.85,0,2.6s0,1.33.08,1.75a1.87,1.87,0,0,0,.2.72.84.84,0,0,0,.63.34c.15,0,.31.06.5.08l.43,0a.14.14,0,0,1,.16.16c0,.12-.11.17-.33.17h-.86l-.81,0-.62,0h-.27l-.8,0-.67,0h-.59c-.22,0-.34-.05-.34-.17s.06-.16.17-.16l.32,0,.32-.08a.48.48,0,0,0,.39-.34,5,5,0,0,0,.16-.72,14.67,14.67,0,0,0,.1-1.76c0-.76,0-1.63,0-2.61Zm1.81,1.71a.28.28,0,0,0,.14.26,1.07,1.07,0,0,0,.36.12l.55.09c.22,0,.44.06.68.08l.71,0a5.19,5.19,0,0,0,.78-.05,1.7,1.7,0,0,0,.79-.31,2.57,2.57,0,0,0,.9-1.13,4.72,4.72,0,0,0,.35-2,4.14,4.14,0,0,0-1-2.93,3.42,3.42,0,0,0-2.64-1q-.48,0-.9,0a4.89,4.89,0,0,0-.6.08.29.29,0,0,0-.16.24Z"/><path class="cls-1" d="M156.46,313.3v-3.65c0-.36,0-.65,0-.86s0-.42,0-.61a2.15,2.15,0,0,0-.23-.92,1.13,1.13,0,0,0-.79-.43,1.22,1.22,0,0,0-.39-.06h-.41c-.13,0-.19-.05-.19-.14s.12-.19.38-.19h.85l.84,0,.67,0h.73l.76,0,1,0h3.15a14.91,14.91,0,0,1,2.5.25,11.49,11.49,0,0,1,2.59.79,7.36,7.36,0,0,1,2.34,1.65,9.61,9.61,0,0,1,.87,1.07,6.82,6.82,0,0,1,.73,1.34,8.4,8.4,0,0,1,.52,1.65,10,10,0,0,1,.18,2,10.27,10.27,0,0,1-.21,2.11,10.14,10.14,0,0,1-.57,1.84,9.24,9.24,0,0,1-.82,1.53,7.89,7.89,0,0,1-1,1.2,8.17,8.17,0,0,1-1,.88,7.33,7.33,0,0,1-1.48.89,10.15,10.15,0,0,1-2,.69,12,12,0,0,1-2.69.27c-.5,0-1.05,0-1.65,0l-1.64-.1-1.33-.09-.64,0h-.31l-.64,0-.74,0-.64,0c-.25,0-.38-.06-.38-.19s.07-.14.19-.14l.36,0,.35-.08a.62.62,0,0,0,.49-.42,3.7,3.7,0,0,0,.2-.88,18.16,18.16,0,0,0,.11-2.1c0-.89,0-1.91,0-3Zm2,2.57v1.8c0,.57,0,1.08,0,1.54s0,.85,0,1.17,0,.53,0,.63,0,.31,0,.49,0,.36,0,.54,0,.33.07.47a1.43,1.43,0,0,0,.12.31,1.37,1.37,0,0,0,.37.33,3,3,0,0,0,.71.31,6.9,6.9,0,0,0,1.19.22,14.55,14.55,0,0,0,1.76.09,8.48,8.48,0,0,0,3.12-.57,7.23,7.23,0,0,0,2.53-1.64,4.91,4.91,0,0,0,.81-1.09,8.32,8.32,0,0,0,.6-1.39,8.76,8.76,0,0,0,.37-1.55,11.21,11.21,0,0,0,.12-1.64,8.74,8.74,0,0,0-.77-3.74,7.94,7.94,0,0,0-.75-1.3,9.31,9.31,0,0,0-.76-.94,8.09,8.09,0,0,0-1.75-1.41,8.53,8.53,0,0,0-1.9-.82,9.62,9.62,0,0,0-2-.36c-.68-.06-1.38-.09-2.09-.09h-.42l-.46,0-.42.06-.25.06a.45.45,0,0,0-.28.47c0,.21,0,.5,0,.88s0,.81,0,1.28v5.84Z"/><path class="cls-1" d="M179.57,318.5c0,1,0,1.85,0,2.61s0,1.34.08,1.76a2.38,2.38,0,0,0,.17.72c.08.18.27.29.59.34l.52.08.43,0c.11,0,.17.05.17.16s-.11.17-.34.17h-.87l-.84,0-.62,0h-.56l-.56,0-.65,0h-.57c-.22,0-.33-.05-.33-.17a.14.14,0,0,1,.16-.16l.32,0,.33-.08a.54.54,0,0,0,.4-.34,3.39,3.39,0,0,0,.14-.72c0-.42.08-1,.09-1.76s0-1.63,0-2.61v-6.64c0-.32,0-.57,0-.75s0-.35,0-.51a1.87,1.87,0,0,0-.19-.77.66.66,0,0,0-.47-.32l-.36-.06h-.28a.15.15,0,0,1-.17-.17c0-.11.11-.17.33-.17l.61,0h3l.58,0c.22,0,.33.06.33.17s0,.17-.16.17h-.24a.91.91,0,0,0-.28.05.77.77,0,0,0-.56.33,1.93,1.93,0,0,0-.18.78c0,.16,0,.33,0,.51s0,.43,0,.75v6.64Z"/><path class="cls-1" d="M196.72,319.21c0-.41,0-.74,0-1a2.11,2.11,0,0,0-.1-.59.59.59,0,0,0-.28-.3,2,2,0,0,0-.49-.17,2.53,2.53,0,0,0-.35,0l-.36,0c-.12,0-.17-.05-.17-.16s.11-.17.33-.17l.77,0h.77l.62,0H198l.55,0h.66l.57,0c.22,0,.33.06.33.17s-.06.16-.17.16h-.23a1.45,1.45,0,0,0-.29.05.82.82,0,0,0-.58.32,1.92,1.92,0,0,0-.2.8c0,.32,0,.64,0,1v3.37a4.51,4.51,0,0,1,0,.84.42.42,0,0,1-.24.25,5.79,5.79,0,0,1-1.08.43q-.58.17-1.17.27t-1.17.15a9.5,9.5,0,0,1-1,.05q-.58,0-1.41-.06a10.8,10.8,0,0,1-1.74-.28,10.66,10.66,0,0,1-1.89-.66,7.51,7.51,0,0,1-1.83-1.16,6.37,6.37,0,0,1-.93-1,7,7,0,0,1-.79-1.33,8.62,8.62,0,0,1-.56-1.6,7.75,7.75,0,0,1-.22-1.82,8.37,8.37,0,0,1,.29-2.24,7.79,7.79,0,0,1,.76-1.86,6.77,6.77,0,0,1,1.11-1.46A8,8,0,0,1,188,310.1a7.92,7.92,0,0,1,2.88-1.07,19,19,0,0,1,2.67-.21c.33,0,.67,0,1,0s.66.05,1,.09l.77.12.47.08.81.15a7.1,7.1,0,0,0,.88.06c.17,0,.26.07.26.2s0,.17,0,.28a4.15,4.15,0,0,0,0,.49c0,.21,0,.48,0,.82s0,.75,0,1.25a.68.68,0,0,1-.06.35.22.22,0,0,1-.18.08c-.09,0-.14-.1-.14-.31a3.72,3.72,0,0,0-.12-.58,2.13,2.13,0,0,0-.35-.75,3.66,3.66,0,0,0-1.59-1.06,8.58,8.58,0,0,0-3.23-.5,12,12,0,0,0-2.06.2,5.38,5.38,0,0,0-2.3,1.1,5,5,0,0,0-1.49,2,7.62,7.62,0,0,0-.58,3.08,7.79,7.79,0,0,0,.24,2,8.73,8.73,0,0,0,.58,1.62,6.45,6.45,0,0,0,.73,1.21,5,5,0,0,0,.66.76,7.57,7.57,0,0,0,2.57,1.64,8,8,0,0,0,2.77.48,10.8,10.8,0,0,0,1.2-.08,2.37,2.37,0,0,0,1-.31,1.66,1.66,0,0,0,.31-.22.5.5,0,0,0,.12-.39Z"/><path class="cls-1" d="M206.8,318.5c0,1,0,1.85,0,2.61s0,1.34.08,1.76a2.38,2.38,0,0,0,.17.72.71.71,0,0,0,.59.34l.52.08.43,0c.11,0,.17.05.17.16s-.11.17-.33.17h-.88l-.83,0-.63,0h-.56l-.56,0-.65,0h-.57c-.22,0-.33-.05-.33-.17s.06-.16.17-.16l.32,0,.32-.08a.52.52,0,0,0,.4-.34,3.39,3.39,0,0,0,.14-.72c.05-.42.08-1,.1-1.76s0-1.63,0-2.61v-6.64c0-.32,0-.57,0-.75s0-.35,0-.51a1.87,1.87,0,0,0-.19-.77.66.66,0,0,0-.47-.32l-.36-.06h-.28a.15.15,0,0,1-.17-.17c0-.11.11-.17.34-.17l.6,0h3l.58,0c.23,0,.34.06.34.17a.15.15,0,0,1-.17.17h-.24a.91.91,0,0,0-.28.05.77.77,0,0,0-.56.33,2.12,2.12,0,0,0-.18.78c0,.16,0,.33,0,.51s0,.43,0,.75v6.64Z"/><path class="cls-1" d="M218.68,318.5c0,1,0,1.85,0,2.61a15.51,15.51,0,0,0,.08,1.76,1.88,1.88,0,0,0,.19.72.77.77,0,0,0,.62.34,4.79,4.79,0,0,0,.5.08l.44,0c.11,0,.17.05.17.16s-.11.17-.33.17h-.87l-.8,0-.62,0h-.6l-.59,0-.69,0h-.58c-.22,0-.33-.05-.33-.17s.06-.14.17-.14a1.78,1.78,0,0,0,.31,0l.3-.07a.57.57,0,0,0,.45-.36,2.53,2.53,0,0,0,.17-.73,15.51,15.51,0,0,0,.08-1.76c0-.76,0-1.63,0-2.61V310l-3,.05a6.78,6.78,0,0,0-1.43.15,1.19,1.19,0,0,0-.68.49,2,2,0,0,0-.24.39l-.09.25c0,.13-.1.19-.21.19a.13.13,0,0,1-.1,0,.14.14,0,0,1-.05-.13c0-.05,0-.18.07-.4s.1-.45.16-.7.11-.48.15-.69a2.26,2.26,0,0,0,.07-.39,1.38,1.38,0,0,0,.11-.24c0-.09.08-.14.11-.14a.62.62,0,0,1,.3.1,2.12,2.12,0,0,0,.62.14l.95.07c.33,0,.56,0,.69,0h7.88c.34,0,.64,0,.87,0s.45,0,.62-.07L224,309l.21,0c.07,0,.1.08.1.24s0,.36,0,.6l0,.7c0,.22,0,.43,0,.62s0,.32,0,.38-.07.26-.19.26a.11.11,0,0,1-.11-.07,1.38,1.38,0,0,1-.06-.28l0-.22a1.1,1.1,0,0,0-.14-.42,1.08,1.08,0,0,0-.4-.35,2.29,2.29,0,0,0-.76-.23,9,9,0,0,0-1.22-.11l-2.61-.05Z"/><path class="cls-1" d="M230.81,309.51a3.68,3.68,0,0,1,.28-.64.25.25,0,0,1,.21-.14.26.26,0,0,1,.25.2c.06.13.14.31.25.53s.2.47.42,1l.77,1.88c.3.74.63,1.55,1,2.43l1.06,2.59c.35.85.68,1.67,1,2.43s.58,1.41.8,1.91a8.63,8.63,0,0,0,.53,1.09,4.39,4.39,0,0,0,.48.65,2.11,2.11,0,0,0,.41.33,2.4,2.4,0,0,0,.36.14,2.84,2.84,0,0,0,.45.1l.38,0,.18,0a.14.14,0,0,1,.08.13c0,.07-.05.11-.14.13a1.15,1.15,0,0,1-.33,0H237l-1.08,0-.52,0c-.15,0-.22,0-.22-.11s0-.07,0-.08l.1-.06a.74.74,0,0,0,.21-.17c.07-.08.06-.2,0-.38l-1.87-4.62a.22.22,0,0,0-.19-.12h-4.81a.23.23,0,0,0-.22.17l-1.18,3.22a3.87,3.87,0,0,0-.31,1.35.44.44,0,0,0,.22.43,1,1,0,0,0,.49.12h.19c.14,0,.21.05.21.16s-.1.17-.31.17h-.47l-.57,0-.51,0h-.62l-.52,0-.64,0h-.65c-.27,0-.41-.05-.41-.17s.07-.16.19-.16l.31,0a1.3,1.3,0,0,0,.31,0,1.5,1.5,0,0,0,1.08-.59,6.37,6.37,0,0,0,.68-1.26Zm2.32,8.4c.07,0,.09-.05.07-.14l-2.06-5.53q-.19-.47-.36,0l-1.94,5.53c0,.09,0,.14.07.14Z"/><path class="cls-1" d="M244.33,318.55c0,.74,0,1.38,0,1.91s0,1,.06,1.32a5.72,5.72,0,0,0,.13.85,1.05,1.05,0,0,0,.23.45,1.65,1.65,0,0,0,.9.37,12.59,12.59,0,0,0,1.87.1,11.16,11.16,0,0,0,1.49-.08,1.59,1.59,0,0,0,1-.53,2.85,2.85,0,0,0,.32-.54,3.18,3.18,0,0,0,.18-.6c0-.18.1-.26.21-.26s.14.1.14.3,0,.16,0,.33,0,.34-.07.54-.07.4-.1.62a2.8,2.8,0,0,1-.12.53,1.16,1.16,0,0,1-.1.3.36.36,0,0,1-.19.15,1.1,1.1,0,0,1-.37.07,5.62,5.62,0,0,1-.66,0c-1.46,0-2.67,0-3.64-.07l-1.25,0h-1.33l-.55,0-.64,0h-.57c-.22,0-.33-.05-.33-.17s.06-.16.17-.16l.32,0,.32-.08a.5.5,0,0,0,.39-.34,5.2,5.2,0,0,0,.15-.72,12.54,12.54,0,0,0,.11-1.76c0-.76,0-1.63,0-2.61v-6.64c0-.32,0-.57,0-.75s0-.35,0-.51a1.92,1.92,0,0,0-.19-.78q-.13-.27-.66-.33a2.11,2.11,0,0,0-.34,0h-.37a.15.15,0,0,1-.17-.17c0-.11.11-.17.34-.17l.75,0H245l.62,0c.22,0,.33.06.33.17s-.06.14-.16.14l-.31,0c-.13,0-.26,0-.38,0a.87.87,0,0,0-.61.34,2.64,2.64,0,0,0-.18.8c0,.16,0,.33,0,.51s0,.43,0,.75v6.69Z"/><path class="cls-1" d="M125.32,198.19l25.3-43.31h44.47v85.81l38.21,23.23v-249L201.7,0,125.32,132.66,48.93,0,17.33,14.89v249l38.21-23.23V154.88H100l25.29,43.31m-69.77-49V78.74L96.7,149.21Zm98.39,0,41.16-70.47v70.47Z"/></g></g></svg>