<svg xmlns="http://www.w3.org/2000/svg" viewBox="0 0 2404.94 508.6"><defs><style>.cls-1{fill:#00155c;}</style></defs><g id="Capa_3" data-name="Capa 3"><path class="cls-1" d="M283.77,342,319,281.7h61.91V401.15l53.18,32.34V86.84l-44-20.73L283.77,250.77,177.44,66.11l-44,20.73V433.49l53.18-32.34V281.7h61.91L283.76,342m-97.12-68.18V175.72l57.3,98.09Zm137,0,57.29-98.09v98.09Z"/><path class="cls-1" d="M642.41,224.76l-.16-67.51-33.11,55.62H597.4L564.45,158.7v66.06H540V112.25h21.54l42.11,69.92,41.47-69.92h21.38l.32,112.51Z"/><path class="cls-1" d="M767.62,200.65H715.38l-10,24.11H678.73l50.15-112.51H754.6l50.31,112.51H777.58Zm-8.2-19.77L741.58,137.8l-17.85,43.08Z"/><path class="cls-1" d="M888.32,224.76l-21.7-31.34h-24v31.34h-26V112.25h48.71c30.06,0,48.86,15.59,48.86,40.82,0,16.88-8.52,29.26-23.14,35.53l25.23,36.16Zm-24.43-91.29H842.67v39.21h21.22c15.91,0,24-7.39,24-19.61C887.84,140.7,879.8,133.47,863.89,133.47Z"/><path class="cls-1" d="M927.7,168.51c0-33.92,26-58.19,61.08-58.19,19.45,0,35.68,7.07,46.29,19.93l-16.72,15.43c-7.55-8.68-17-13.18-28.29-13.18-21,0-36,14.79-36,36s15,36,36,36c11.25,0,20.74-4.5,28.29-13.34l16.72,15.43c-10.61,13-26.84,20.09-46.45,20.09C953.74,226.69,927.7,202.42,927.7,168.51Z"/><path class="cls-1" d="M1043.1,168.51c0-33.44,26-58.19,61.56-58.19,35.36,0,61.56,24.59,61.56,58.19s-26.2,58.18-61.56,58.18C1069.14,226.69,1043.1,201.94,1043.1,168.51Zm96.76,0c0-21.38-15.11-36-35.2-36s-35.2,14.63-35.2,36,15.11,36,35.2,36S1139.86,189.88,1139.86,168.51Z"/><path class="cls-1" d="M1334.51,112.25V224.76h-26V178.63h-51.12v46.13h-26V112.25h26v44.36h51.12V112.25Z"/><path class="cls-1" d="M1448.3,203.87v20.89h-87.12V112.25h85v20.89h-59.15v24.44h52.24v20.25h-52.24v26Z"/><path class="cls-1" d="M1540.72,224.76,1519,193.42h-24v31.34h-26V112.25h48.71c30,0,48.86,15.59,48.86,40.82,0,16.88-8.52,29.26-23.15,35.53l25.24,36.16Zm-24.43-91.29h-21.22v39.21h21.22c15.91,0,24-7.39,24-19.61C1540.24,140.7,1532.2,133.47,1516.29,133.47Z"/><path class="cls-1" d="M1690.36,112.25V224.76H1669l-56.09-68.31v68.31h-25.72V112.25h21.54l55.93,68.31V112.25Z"/><path class="cls-1" d="M1791.14,200.65H1738.9l-10,24.11h-26.68l50.15-112.51h25.72l50.31,112.51H1801.1Zm-8.2-19.77L1765.1,137.8l-17.84,43.08Zm-12.7-77.79h-19.61l21.7-23.15h27Z"/><path class="cls-1" d="M1943.35,112.25V224.76H1922l-56.09-68.31v68.31h-25.72V112.25h21.54l55.93,68.31V112.25Z"/><path class="cls-1" d="M1970,112.25h51.11c36.81,0,62,22.18,62,56.26s-25.24,56.25-62,56.25H1970Zm49.83,91.14c22.34,0,37-13.35,37-34.88s-14.63-34.88-37-34.88h-23.79v69.76Z"/><path class="cls-1" d="M2189.91,203.87v20.89h-87.12V112.25h85v20.89h-59.15v24.44h52.24v20.25h-52.24v26Z"/><path class="cls-1" d="M2301.78,203.55v21.21h-98.37V207.89l61.72-74.42h-60.44V112.25h94.68v16.88l-61.57,74.42Z"/><path class="cls-1" d="M546.29,280h44.52c35.69,0,59.8,23.47,59.8,56.26s-24.11,56.26-59.8,56.26H546.29Zm43.88,105.12c31.83,0,52.24-20.25,52.24-48.86S622,287.42,590.17,287.42H554.49v97.72Z"/><path class="cls-1" d="M683.39,280h8.2V392.54h-8.2Z"/><path class="cls-1" d="M723.73,378.07l3.7-6.11c7.72,8,22,14.15,37.13,14.15,22.5,0,32.47-9.81,32.47-22,0-33.76-70.24-13.5-70.24-55,0-15.92,12.21-29.9,39.86-29.9,12.38,0,25.24,3.86,33.92,10.13l-3.06,6.59a55.59,55.59,0,0,0-30.86-9.49C744.79,286.45,735,296.58,735,309c0,33.75,70.25,13.82,70.25,54.65,0,15.91-12.7,29.73-40.51,29.73C748,393.34,731.93,387.07,723.73,378.07Z"/><path class="cls-1" d="M915,385.14v7.4H837.37V280h75.22v7.4h-67v44.36h59.95V339H845.57v46.13Z"/><path class="cls-1" d="M1040.86,280V392.54h-6.75l-76.68-97.73v97.73h-8.19V280h6.91l76.51,97.73V280ZM976.4,268.93h-5.3c.32-9.64,5.46-16.07,13.34-16.07,9.64,0,14,11.09,20.73,11.09,5,0,8.2-4,8.52-10.13H1019c-.32,9.33-5.47,15.76-13.34,15.76-9.65,0-14-11.1-20.74-11.1C979.94,258.48,976.72,262.5,976.4,268.93Z"/><path class="cls-1" d="M1154,360.87h-65.26l-14.3,31.67h-8.84L1117.36,280h8.2l51.76,112.52h-8.84Zm-3-6.91L1121.38,289,1092,354Z"/><path class="cls-1" d="M1202.06,280h44.53c35.68,0,59.79,23.47,59.79,56.26s-24.11,56.26-59.79,56.26h-44.53ZM1246,385.14c31.82,0,52.23-20.25,52.23-48.86s-20.41-48.86-52.23-48.86h-35.69v97.72Z"/><path class="cls-1" d="M1328.4,336.28c0-32.63,24.91-57.06,58.5-57.06,33.44,0,58.51,24.27,58.51,57.06s-25.07,57.06-58.51,57.06C1353.31,393.34,1328.4,368.91,1328.4,336.28Zm108.65,0c0-28.45-21.53-49.51-50.15-49.51-28.77,0-50.31,21.06-50.31,49.51s21.54,49.51,50.31,49.51C1415.52,385.79,1437.05,364.73,1437.05,336.28Z"/><path class="cls-1" d="M1556.32,392.54l-26.85-37.61a79.68,79.68,0,0,1-10.93.8H1486.4v36.81h-8.2V280h40.34c28.29,0,45.33,14.15,45.33,37.94,0,17.84-9.64,30.22-26.36,35.2l28.13,39.38Zm-37.78-44c24.11,0,37-11.25,37-30.54,0-19.45-12.86-30.54-37-30.54H1486.4V348.5Z"/><path class="cls-1" d="M1643.91,280h44.52c35.69,0,59.8,23.47,59.8,56.26s-24.11,56.26-59.8,56.26h-44.52Zm43.88,105.12c31.82,0,52.24-20.25,52.24-48.86s-20.42-48.86-52.24-48.86h-35.68v97.72Z"/><path class="cls-1" d="M1782.3,280h8.19V392.54h-8.19Z"/><path class="cls-1" d="M1915.71,336.76h7.87v42.12c-10.13,9.64-24.75,14.46-40.18,14.46-33.92,0-58.83-24.27-58.83-57.06s24.91-57.06,59-57.06c16.23,0,30.54,5.14,40.5,15.43l-5.14,5.47c-9.81-9.65-21.54-13.35-35.2-13.35-29.26,0-51,21.22-51,49.51,0,28.13,21.69,49.51,51,49.51,11.89,0,22.82-2.9,32-10.29Z"/><path class="cls-1" d="M1965.21,280h8.19V392.54h-8.19Z"/><path class="cls-1" d="M2039.79,287.42h-40.51V280h89.21v7.4H2048V392.54h-8.19Z"/><path class="cls-1" d="M2178.34,360.87h-65.26l-14.31,31.67h-8.84L2141.69,280h8.2l51.76,112.52h-8.85Zm-3.06-6.91L2145.71,289,2116.29,354Z"/><path class="cls-1" d="M2227.68,280h8.2V385.14h64.77v7.4h-73Z"/></g></svg>