<svg xmlns="http://www.w3.org/2000/svg" width="89.345" height="70.199" viewBox="0 0 89.345 70.199"><g transform="translate(0 0)"><path d="M8.575,151.873q1.7,1.2,10.221,7.1t13.063,9.1q.5.35,2.118,1.521t2.692,1.9q1.072.722,2.593,1.62a15.042,15.042,0,0,0,2.867,1.345,7.9,7.9,0,0,0,2.493.449h.1a7.906,7.906,0,0,0,2.493-.449,15.056,15.056,0,0,0,2.867-1.345q1.52-.9,2.592-1.62t2.692-1.9q1.62-1.173,2.119-1.521,4.586-3.19,23.333-16.2A23.685,23.685,0,0,0,86.9,145.74a13.167,13.167,0,0,0,2.444-7.527,8.045,8.045,0,0,0-7.977-7.977H7.977a7.12,7.12,0,0,0-5.908,2.592A10.064,10.064,0,0,0,0,139.309q0,3.141,2.742,6.806A24.748,24.748,0,0,0,8.575,151.873Z" transform="translate(0 -130.235)" fill="#00155c"/><path d="M84.358,442.5Q68.007,453.569,59.53,459.7q-2.842,2.093-4.612,3.265a28.453,28.453,0,0,1-4.711,2.393,14.346,14.346,0,0,1-5.484,1.222h-.1a14.35,14.35,0,0,1-5.484-1.222,28.467,28.467,0,0,1-4.711-2.393q-1.769-1.171-4.611-3.265-6.731-4.936-24.779-17.2A26.409,26.409,0,0,1,0,438.165V477.75a7.68,7.68,0,0,0,2.343,5.634,7.68,7.68,0,0,0,5.634,2.344H81.368a8,8,0,0,0,7.977-7.978V438.165A27.491,27.491,0,0,1,84.358,442.5Z" transform="translate(0 -415.53)" fill="#00155c"/></g></svg>