<svg xmlns="http://www.w3.org/2000/svg" width="98.548" height="98.545" viewBox="0 0 98.548 98.545">
  <g id="Layer_2" data-name="Layer 2" transform="translate(300.95 -67.85)">
    <g id="Layer_1" data-name="Layer 1">
      <path id="Path_109" data-name="Path 109" d="M48.049,0h2.525a5.226,5.226,0,0,0,.584.114c1.4.118,2.806.187,4.2.344A45.966,45.966,0,0,1,69.878,4.548a48.712,48.712,0,0,1,25.237,26.6A48.25,48.25,0,0,1,98,56.888,48.086,48.086,0,0,1,90.924,75.7,49.26,49.26,0,0,1,41.18,97.861a47.982,47.982,0,0,1-18.818-7.368,48.908,48.908,0,0,1-19.267-24.3A46.874,46.874,0,0,1,.289,53.132C.228,52.263.131,51.4.05,50.527V48c.042-.231.1-.46.122-.693.26-2.3.386-4.621.791-6.894A48.039,48.039,0,0,1,13.408,15.677,48.483,48.483,0,0,1,30.5,3.816,47.9,47.9,0,0,1,45.554.237C46.388.178,47.217.08,48.049,0ZM22.822,35.421c.123.995.2,2,.382,2.98a32.68,32.68,0,0,0,3.788,10.041,58.738,58.738,0,0,0,10.12,13.015,60.415,60.415,0,0,0,9.961,8.278c4.77,3.026,9.737,5.535,15.51,5.991a6.111,6.111,0,0,0,5.205-1.706c2.318-2.356,4.686-4.661,7.026-7,1.522-1.518,1.323-3.318-.521-4.421q-5.169-3.094-10.371-6.132a3.577,3.577,0,0,0-4.64.633q-1.369,1.381-2.725,2.777a1.2,1.2,0,0,1-1.183.38,9.99,9.99,0,0,1-3.437-1.51A41.868,41.868,0,0,1,41.072,48.44a16.336,16.336,0,0,1-2.625-4.9,1.35,1.35,0,0,1,.4-1.528c.842-.807,1.665-1.64,2.485-2.475a3.263,3.263,0,0,0,.741-3.674c-1.989-3.82-3.982-7.641-6.019-11.434a2.547,2.547,0,0,0-4.358-.6c-2.245,2.245-4.46,4.53-6.755,6.727A6.241,6.241,0,0,0,22.822,35.421Z" transform="translate(-301 67.85)" fill="#00155c"/>
    </g>
  </g>
</svg>
