<svg xmlns="http://www.w3.org/2000/svg" width="69.839" height="69.839" viewBox="0 0 69.839 69.839">
  <g id="whatsapp" transform="translate(0.04 31)">
    <g id="Group_28" data-name="Group 28" transform="translate(-0.04 -31)">
      <path id="Path_51" data-name="Path 51" d="M34.928,0h-.017A34.9,34.9,0,0,0,6.648,55.387L2.3,68.36l13.422-4.291A34.914,34.914,0,1,0,34.928,0ZM55.247,49.311c-.842,2.379-4.186,4.352-6.853,4.928-1.825.388-4.208.7-12.231-2.628C25.9,47.36,19.293,36.932,18.778,36.255c-.493-.677-4.147-5.522-4.147-10.533a11.148,11.148,0,0,1,3.571-8.5,5.073,5.073,0,0,1,3.571-1.253c.432,0,.821.022,1.17.039,1.026.044,1.541.1,2.217,1.724.842,2.03,2.894,7.041,3.138,7.556a2.078,2.078,0,0,1,.148,1.89,6.035,6.035,0,0,1-1.131,1.6c-.515.594-1,1.048-1.519,1.685-.471.554-1,1.148-.41,2.174a31,31,0,0,0,5.666,7.041,25.672,25.672,0,0,0,8.189,5.05,2.208,2.208,0,0,0,2.462-.388,42.248,42.248,0,0,0,2.728-3.614,1.949,1.949,0,0,1,2.505-.76c.943.327,5.932,2.794,6.958,3.3s1.7.759,1.951,1.192S56.09,46.928,55.247,49.311Z" fill="#00155c"/>
    </g>
  </g>
</svg>
